<?xml version="1.0" encoding="UTF-8"?>
<svg xmlns="http://www.w3.org/2000/svg" xmlns:xlink="http://www.w3.org/1999/xlink" viewBox="0 0 432.78 390.4">
  <defs>
    <style>
      .cls-1 {
        fill: none;
      }

      .cls-2 {
        fill: #f4c83d;
      }

      .cls-3 {
        fill: #f8f8f8;
      }

      .cls-4 {
        fill: #002b58;
      }

      .cls-5 {
        fill: #053159;
      }

      .cls-6 {
        fill: #00bc08;
      }

      .cls-7 {
        fill: #008d06;
      }

      .cls-8 {
        fill: #e6f5ff;
      }

      .cls-9 {
        fill: #e8ebf1;
      }

      .cls-10 {
        fill: #fff;
      }

      .cls-11 {
        fill: #ffd952;
      }

      .cls-12 {
        fill: #f29e82;
      }

      .cls-13 {
        fill: #f36f21;
      }

      .cls-14 {
        fill: #ffd22e;
      }

      .cls-15 {
        fill: #e6c34a;
      }

      .cls-16, .cls-17 {
        fill: #ff5c98;
      }

      .cls-18, .cls-19 {
        fill: #ff6b8e;
      }

      .cls-20 {
        fill: #fec1af;
      }

      .cls-21 {
        fill: #ff83a6;
      }

      .cls-22 {
        fill: #919aa8;
      }

      .cls-23 {
        fill: #97caff;
      }

      .cls-24 {
        fill: #96b7d5;
      }

      .cls-25 {
        fill: #9ec2ff;
      }

      .cls-26 {
        fill: #91c7f3;
      }

      .cls-27 {
        fill: #9299a5;
      }

      .cls-28 {
        fill: #b97100;
      }

      .cls-29 {
        fill: #915151;
      }

      .cls-30 {
        fill: #b3bcce;
      }

      .cls-31 {
        fill: #b6daff;
      }

      .cls-32 {
        fill: #8d9db4;
      }

      .cls-33 {
        fill: #b9d3ff;
      }

      .cls-34 {
        fill: #a8c7f3;
      }

      .cls-35 {
        fill: #bbdfff;
      }

      .cls-36 {
        fill: #bf506b;
      }

      .cls-37 {
        fill: #c4c8ce;
      }

      .cls-38 {
        fill: #e0e0e0;
      }

      .cls-39 {
        fill: #093d73;
      }

      .cls-40 {
        fill: #063259;
      }

      .cls-41 {
        fill: #06345e;
      }

      .cls-42 {
        fill: #3497e8;
      }

      .cls-43 {
        fill: #6ea1ea;
      }

      .cls-44 {
        fill: #707070;
      }

      .cls-45 {
        fill: #715355;
      }

      .cls-46 {
        fill: #4a9fe5;
      }

      .cls-47, .cls-48, .cls-49 {
        fill: #78bbff;
      }

      .cls-48, .cls-50, .cls-17, .cls-19, .cls-51, .cls-52, .cls-49 {
        mix-blend-mode: multiply;
      }

      .cls-50 {
        fill: #dce5f2;
      }

      .cls-51 {
        fill: #e6c655;
      }

      .cls-49 {
        opacity: .69;
      }

      .cls-53 {
        isolation: isolate;
      }

      .cls-54 {
        clip-path: url(#clippath);
      }
    </style>
    <clipPath id="clippath">
      <path class="cls-1" d="M244.68,372.93l-102.84-59.38c-4.31-2.49-3.77-6.84,1.21-9.72l45.84-26.37c4.98-2.88,12.52-3.19,16.83-.7l102.84,59.37c4.31,2.49,3.77,6.84-1.21,9.72l-45.84,26.37c-4.98,2.88-12.52,3.19-16.83,.7Z"/>
    </clipPath>
  </defs>
  <g class="cls-53">
    <g id="Background"/>
    <g id="Online_Survey" data-name="Online Survey">
      <g>
        <g>
          <path class="cls-50" d="M392.01,295.22l-191.65-111.03c-5.78-3.33-5.81-8.72-.07-12.04l13.21-7.98c5.74-3.31,15.08-3.3,20.85,.04l191.65,111.03c5.78,3.33,5.81,8.72,.07,12.04l-13.21,7.98c-5.74,3.31-15.08,3.3-20.85-.04Z"/>
          <g>
            <polygon class="cls-30" points="214.65 8.82 207.34 11.21 211.9 13.49 214.65 9.55 214.65 8.82"/>
            <polygon class="cls-30" points="402.43 300.04 409.75 297.09 408.42 293.4 403.94 294.5 402.43 300.04"/>
            <path class="cls-30" d="M403.31,296.59l-201.57-116.37c-5.78-3.33-10.46-11.41-10.46-18.04L210.3,16.04c0-6.63,4.68-9.3,10.46-5.96l201.57,116.37c5.78,3.33,10.46,11.41,10.46,18.04l-19.02,146.13c-.75,4.83-4.68,9.3-10.46,5.96Z"/>
            <path class="cls-9" d="M396.62,298.78l-201.57-116.37c-5.78-3.33-10.46-11.41-10.46-18.04L203.61,18.24c.7-7.09,4.68-9.3,10.46-5.96l201.57,116.37c5.78,3.33,10.46,11.41,10.46,18.04l-19.02,146.13c-1.13,6.62-4.68,9.3-10.46,5.96Z"/>
            <path class="cls-39" d="M384.26,285.18l-184.1-106.22c-5.51-3.18-9.97-10.88-9.97-17.2L208.33,27.9c.65-6.31,4.47-8.87,9.97-5.69l184.09,106.22c5.51,3.18,9.97,10.88,9.97,17.2l-18.13,133.86c-.98,5.95-4.47,8.87-9.97,5.69Z"/>
            <polygon class="cls-24" points="386.91 278.62 196.58 168.39 215.62 30.82 405.95 141.04 386.91 278.62"/>
          </g>
          <path class="cls-49" d="M386.91,106.01l-24.28,143.22s-2.84,12.77-15.57,8.3c-12.73-4.47,16.43-139.35,16.43-139.35l17.81-15.24,5.6,3.07Z"/>
          <g>
            <path class="cls-38" d="M400.22,81.58l-2.2-1.27c9.3,5.37,6.29,15.09,5.12,21.69l-1.98,11.81-19.85-10.87,1.98-11.81c1.63-9.74,7.64-14.92,16.94-9.55Z"/>
            <g>
              <path class="cls-3" d="M267.02,4.68l136.11,78.58c-13.24-7.64-17.14-2.14-18.59,6.58l-26.45,155.95-140.6-66.84L242.66,7.98c1.46-8.75,11.1-10.96,24.37-3.3Z"/>
              <path class="cls-47" d="M247.38,183.61c-.81,0-1.66-.24-2.47-.7l-12.94-7.47c-2.37-1.37-3.9-4.43-3.48-6.97l2.26-13.54c.23-1.38,1.02-2.49,2.17-3.03,1.23-.58,2.73-.45,4.11,.34l12.94,7.47c2.37,1.37,3.9,4.43,3.48,6.97l-2.26,13.54c-.23,1.38-1.02,2.49-2.17,3.03-.51,.24-1.07,.36-1.64,.36Zm-12.81-28.75c-.1,0-.17,.02-.23,.04-.2,.09-.28,.4-.3,.57l-2.26,13.55c-.2,1.18,.69,2.86,1.86,3.54l12.94,7.47c.49,.28,.86,.3,1.02,.22,.2-.09,.28-.4,.3-.57l2.26-13.54c.2-1.18-.69-2.86-1.86-3.54l-12.94-7.47c-.33-.19-.6-.26-.8-.26Z"/>
              <path class="cls-38" d="M340.7,256.74l-125.81-72.64c-16.45-9.5-16.98-13.67-14.6-27.9l2.88,1.45,141.87,81.91-4.34,17.17Z"/>
              <path class="cls-3" d="M339.73,256.19c8.73,3.92,17.3-1.88,19.53-15.23l18.41-110.12-25.38-21.65-22.37,115.76c-3.45,23.58,1.98,27.73,9.81,31.24Z"/>
            </g>
            <path class="cls-47" d="M269.12,53.54c-.81,0-1.66-.24-2.47-.7l-12.94-7.47c-2.37-1.37-3.9-4.43-3.48-6.97l2.26-13.54c.23-1.38,1.02-2.49,2.17-3.03,1.23-.58,2.73-.45,4.11,.34l12.94,7.47c2.37,1.37,3.9,4.43,3.48,6.97l-2.26,13.54c-.23,1.38-1.02,2.49-2.17,3.03-.51,.24-1.07,.36-1.64,.36Zm-.8-3.59c.49,.28,.86,.3,1.02,.22,.2-.09,.28-.4,.3-.57l2.26-13.54c.2-1.18-.69-2.86-1.86-3.54l-12.94-7.47c-.49-.28-.86-.29-1.02-.22-.2,.09-.28,.4-.3,.57l-2.26,13.54c-.2,1.18,.69,2.86,1.86,3.54l12.94,7.47Z"/>
            <path class="cls-6" d="M261.97,43.63c-.1,0-.19,0-.29-.02-.53-.09-.98-.43-1.21-.92l-8.54-17.69c-.4-.83-.05-1.82,.77-2.22,.83-.4,1.82-.05,2.22,.77l7.54,15.61,11.06-10.75c.66-.64,1.71-.63,2.35,.03,.64,.66,.63,1.71-.03,2.35l-12.71,12.36c-.31,.3-.73,.47-1.16,.47Z"/>
            <path class="cls-47" d="M263.6,86.59c-.81,0-1.66-.24-2.47-.7l-12.94-7.47c-2.37-1.37-3.9-4.43-3.48-6.97l2.26-13.54c.23-1.38,1.02-2.49,2.17-3.03,1.23-.58,2.73-.45,4.11,.34l12.94,7.47c2.37,1.37,3.9,4.43,3.48,6.97l-2.26,13.54c-.23,1.38-1.02,2.49-2.17,3.03-.51,.24-1.07,.36-1.64,.36Zm-12.81-28.75c-.1,0-.17,.02-.23,.04-.2,.09-.28,.4-.3,.57l-2.26,13.54c-.2,1.18,.69,2.86,1.86,3.54l12.94,7.47c.49,.28,.86,.29,1.03,.22,.2-.09,.28-.4,.3-.57l2.26-13.54c.2-1.18-.69-2.86-1.86-3.54l-12.94-7.47c-.33-.19-.6-.26-.8-.26Z"/>
            <path class="cls-6" d="M256.44,76.69c-.1,0-.19,0-.29-.02-.53-.09-.98-.43-1.21-.92l-8.54-17.69c-.4-.83-.05-1.82,.77-2.22,.83-.4,1.82-.05,2.22,.77l7.54,15.61,11.06-10.75c.66-.64,1.71-.62,2.35,.03,.64,.66,.63,1.71-.03,2.35l-12.71,12.36c-.31,.3-.73,.47-1.16,.47Z"/>
            <path class="cls-47" d="M258.11,119.43c-.81,0-1.66-.24-2.47-.7l-12.94-7.47c-2.37-1.37-3.9-4.43-3.48-6.97l2.26-13.54c.23-1.38,1.02-2.49,2.17-3.03,1.23-.58,2.73-.45,4.11,.34l12.94,7.47c2.37,1.37,3.9,4.43,3.48,6.97l-2.26,13.54c-.23,1.38-1.02,2.49-2.17,3.03-.51,.24-1.07,.36-1.64,.36Zm-.8-3.59c.49,.29,.86,.29,1.02,.22,.2-.09,.28-.4,.3-.57l2.26-13.54c.2-1.18-.69-2.86-1.86-3.54l-12.94-7.47c-.49-.28-.86-.29-1.02-.22-.2,.09-.28,.4-.31,.57l-2.26,13.54c-.2,1.18,.69,2.86,1.86,3.54l12.94,7.47Z"/>
            <path class="cls-47" d="M252.7,151.77c-.81,0-1.66-.24-2.47-.7l-12.94-7.47c-2.37-1.37-3.9-4.43-3.48-6.97l2.26-13.54c.23-1.38,1.02-2.49,2.17-3.03,1.23-.58,2.73-.45,4.11,.34l12.94,7.47c2.37,1.37,3.9,4.43,3.48,6.97l-2.26,13.54c-.23,1.38-1.02,2.49-2.17,3.03-.51,.24-1.07,.36-1.64,.36Zm-.8-3.59c.49,.29,.86,.3,1.02,.22,.2-.09,.28-.4,.3-.57l2.26-13.54c.2-1.18-.69-2.86-1.86-3.54l-12.94-7.47c-.49-.28-.86-.29-1.02-.22-.2,.09-.28,.4-.3,.57l-2.26,13.54c-.2,1.18,.69,2.86,1.86,3.54l12.94,7.47Z"/>
            <path class="cls-6" d="M245.54,141.86c-.1,0-.19,0-.29-.02-.53-.09-.98-.43-1.21-.91l-8.54-17.69c-.4-.83-.05-1.82,.77-2.22,.83-.4,1.82-.05,2.22,.77l7.54,15.61,11.06-10.75c.66-.64,1.71-.63,2.35,.03,.64,.66,.63,1.71-.03,2.35l-12.71,12.36c-.31,.3-.73,.47-1.16,.47Z"/>
            <path class="cls-18" d="M256.59,115c-.57,0-1.11-.32-1.37-.86l-9.83-20.22c-.37-.76-.05-1.67,.71-2.04,.76-.37,1.67-.05,2.04,.71l9.83,20.22c.37,.76,.05,1.67-.71,2.04-.21,.1-.44,.15-.67,.15Z"/>
            <path class="cls-18" d="M244.23,107.86c-.59,0-1.15-.34-1.4-.91-.34-.77,.01-1.67,.78-2.01l14.29-6.29c.77-.34,1.67,.01,2.01,.78,.34,.77-.01,1.67-.78,2.01l-14.29,6.29c-.2,.09-.41,.13-.61,.13Z"/>
            <path class="cls-42" d="M366.08,91.35c-.35,0-.7-.09-1.02-.27l-79.22-45.74c-.97-.56-1.31-1.81-.75-2.78,.56-.97,1.81-1.31,2.78-.75l79.22,45.74c.97,.56,1.31,1.81,.75,2.78-.38,.65-1.06,1.02-1.77,1.02Z"/>
            <path class="cls-47" d="M352.43,91.97c-.35,0-.7-.09-1.02-.27l-66.86-38.6c-.97-.56-1.31-1.81-.75-2.78,.56-.97,1.81-1.31,2.78-.75l66.86,38.6c.97,.56,1.31,1.81,.75,2.78-.38,.65-1.06,1.02-1.77,1.02Z"/>
            <path class="cls-47" d="M363.49,106.86c-.35,0-.7-.09-1.02-.27l-79.22-45.74c-.97-.56-1.31-1.81-.75-2.78,.56-.97,1.81-1.31,2.78-.75l79.22,45.74c.97,.56,1.31,1.81,.75,2.78-.38,.65-1.06,1.02-1.77,1.02Z"/>
            <path class="cls-42" d="M355.19,120.21c-.35,0-.7-.09-1.02-.27l-73.69-42.54c-.97-.56-1.31-1.81-.75-2.78,.56-.97,1.81-1.31,2.78-.75l73.69,42.54c.97,.56,1.31,1.81,.75,2.78-.38,.65-1.06,1.02-1.77,1.02Z"/>
            <path class="cls-47" d="M359.43,131.16c-.35,0-.7-.09-1.02-.27l-79.22-45.74c-.97-.56-1.31-1.81-.75-2.78,.56-.97,1.81-1.31,2.78-.75l79.22,45.74c.97,.56,1.31,1.81,.75,2.78-.38,.65-1.06,1.02-1.77,1.02Z"/>
            <path class="cls-47" d="M340.71,128.86c-.35,0-.7-.09-1.02-.27l-61.8-35.68c-.97-.56-1.31-1.81-.75-2.78,.56-.97,1.81-1.31,2.78-.75l61.8,35.68c.97,.56,1.31,1.81,.75,2.78-.38,.65-1.06,1.02-1.77,1.02Z"/>
            <path class="cls-42" d="M340.12,147.97c-.35,0-.7-.09-1.02-.27l-64.18-37.05c-.97-.56-1.31-1.81-.75-2.78,.56-.97,1.81-1.31,2.78-.75l64.18,37.05c.97,.56,1.31,1.81,.75,2.78-.38,.65-1.06,1.02-1.77,1.02Z"/>
            <path class="cls-47" d="M353.87,164.41c-.35,0-.7-.09-1.02-.27l-79.22-45.74c-.97-.56-1.31-1.81-.75-2.78,.56-.97,1.8-1.31,2.78-.75l79.22,45.74c.97,.56,1.31,1.81,.75,2.78-.38,.65-1.06,1.02-1.77,1.02Z"/>
            <path class="cls-47" d="M344.66,167.6c-.35,0-.7-.09-1.02-.27l-71.31-41.17c-.97-.56-1.31-1.81-.75-2.78,.56-.97,1.81-1.31,2.78-.75l71.31,41.17c.97,.56,1.31,1.81,.75,2.78-.38,.65-1.06,1.02-1.77,1.02Z"/>
            <path class="cls-42" d="M342.32,184.71c-.35,0-.7-.09-1.02-.27l-71.78-41.44c-.97-.56-1.31-1.81-.75-2.78,.56-.97,1.81-1.31,2.78-.75l71.78,41.44c.97,.56,1.31,1.81,.75,2.78-.38,.65-1.06,1.02-1.77,1.02Z"/>
            <path class="cls-47" d="M348.46,196.75c-.35,0-.7-.09-1.02-.27l-79.22-45.73c-.97-.56-1.31-1.81-.75-2.78,.56-.97,1.81-1.31,2.78-.75l79.22,45.74c.97,.56,1.31,1.81,.75,2.78-.38,.65-1.06,1.02-1.77,1.02Z"/>
            <path class="cls-42" d="M343.65,220.4c-.35,0-.7-.09-1.02-.27l-78.44-45.29c-.97-.56-1.31-1.81-.75-2.78,.56-.97,1.81-1.31,2.78-.75l78.44,45.29c.97,.56,1.31,1.81,.75,2.78-.38,.65-1.06,1.02-1.77,1.02Z"/>
            <path class="cls-47" d="M326.97,219.27c-.35,0-.7-.09-1.02-.27l-63.05-36.4c-.97-.56-1.31-1.81-.75-2.78,.56-.97,1.81-1.31,2.78-.75l63.05,36.4c.97,.56,1.31,1.81,.75,2.78-.38,.65-1.06,1.02-1.77,1.02Z"/>
            <path class="cls-47" d="M323.09,190.61c-.35,0-.7-.09-1.02-.27l-55.15-31.84c-.97-.56-1.31-1.81-.75-2.78,.56-.97,1.81-1.31,2.78-.75l55.15,31.84c.97,.56,1.31,1.81,.75,2.78-.38,.65-1.06,1.02-1.77,1.02Z"/>
          </g>
          <path class="cls-30" d="M415.05,220.29c.41-3.12-1.63-7.02-4.56-8.71-2.93-1.69-5.63-.53-6.05,2.59s1.63,7.02,4.56,8.71c2.93,1.69,5.63,.53,6.05-2.59Z"/>
        </g>
        <g>
          <path class="cls-30" d="M245.75,387.82l-114.11-65.88c-4.79-2.76-4.19-7.59,1.34-10.78l53.32-30.78c5.53-3.19,13.89-3.54,18.68-.77l114.11,65.88c4.79,2.76,4.19,7.59-1.34,10.78l-53.32,30.78c-5.53,3.19-13.89,3.54-18.68,.77Z"/>
          <polygon class="cls-30" points="128.41 317.39 128.41 307.64 133.75 312.51 131.08 317.39 128.41 317.39"/>
          <polygon class="cls-30" points="322.32 350.05 322.32 340.99 314.9 340.99 314.9 350.73 322.32 350.05"/>
          <path class="cls-9" d="M245.75,379.03l-114.11-65.88c-4.79-2.76-4.19-7.59,1.34-10.78l53.32-30.78c5.53-3.19,13.89-3.54,18.68-.77l114.11,65.88c4.79,2.76,4.19,7.59-1.34,10.78l-53.32,30.78c-5.53,3.19-13.89,3.54-18.68,.77Z"/>
          <path class="cls-39" d="M245.01,377.06l-109.95-63.48c-4.61-2.66-4.03-7.31,1.29-10.39l51.37-29.66c5.33-3.07,13.38-3.41,17.99-.75l109.95,63.48c4.61,2.66,4.03,7.31-1.29,10.39l-51.37,29.66c-5.33,3.07-13.38,3.41-17.99,.75Z"/>
          <path class="cls-47" d="M244.68,372.93l-102.84-59.38c-4.31-2.49-3.77-6.84,1.21-9.72l45.84-26.37c4.98-2.88,12.52-3.19,16.83-.7l102.84,59.37c4.31,2.49,3.77,6.84-1.21,9.72l-45.84,26.37c-4.98,2.88-12.52,3.19-16.83,.7Z"/>
          <path class="cls-39" d="M299.44,364.24l-14.98,8.65c-.68,.39-1.23-.02-1.23-.93s.55-1.95,1.23-2.35l14.98-8.65c.68-.39,1.23,.02,1.23,.93s-.55,1.95-1.23,2.35Z"/>
          <path class="cls-39" d="M316.32,352.93c0-.9-.64-1.27-1.43-.81-.79,.45-1.43,1.56-1.43,2.46s.64,1.27,1.43,.81c.79-.45,1.43-1.56,1.43-2.46Z"/>
          <path class="cls-39" d="M146.11,326.08c0,.76-.46,1.11-1.03,.78l-5.6-3.24c-.57-.33-1.03-1.21-1.03-1.97s.46-1.11,1.03-.78l5.6,3.24c.57,.33,1.03,1.21,1.03,1.97Z"/>
          <g class="cls-54">
            <g>
              <polygon class="cls-10" points="252.62 379.23 131.44 309.27 198.64 270.47 319.82 340.43 252.62 379.23"/>
              <polygon class="cls-26" points="291.86 356.58 170.67 286.61 177.28 282.8 298.46 352.76 291.86 356.58"/>
              <polygon class="cls-31" points="285.25 360.39 164.07 290.43 170.67 286.61 291.86 356.58 285.25 360.39"/>
              <polygon class="cls-31" points="271.92 368.09 150.73 298.13 157.34 294.31 278.52 364.28 271.92 368.09"/>
              <polygon class="cls-26" points="278.65 364.21 157.46 294.24 164.07 290.43 285.25 360.39 278.65 364.21"/>
              <path class="cls-27" d="M249.74,374.02l-.11-.06-109.17-63.03,7.03-4.06,.11,.06,109.17,63.03-7.03,4.06Zm-108.43-63.09l108.43,62.61,6.18-3.57-108.43-62.6-6.18,3.57Z"/>
              <polygon class="cls-26" points="265.33 371.89 144.14 301.93 150.75 298.11 271.94 368.08 265.33 371.89"/>
              <polygon class="cls-30" points="310.44 345.85 189.26 275.88 198.76 270.39 319.95 340.36 310.44 345.85"/>
              <path class="cls-32" d="M230.48,292.78l-29.97-17.3c-.53-.3-1.44-.27-2.05,.08-.61,.35-.67,.88-.15,1.18l29.97,17.3c.53,.3,1.44,.27,2.05-.08,.61-.35,.67-.88,.15-1.18Z"/>
              <path class="cls-32" d="M259.21,309.36l-22.49-12.99c-.53-.3-1.44-.27-2.05,.08s-.67,.88-.15,1.18l22.49,12.99c.53,.3,1.44,.27,2.05-.08,.61-.35,.67-.88,.15-1.18Z"/>
              <path class="cls-37" d="M206.27,291.06l-16.55-9.56c-.43-.25-1.17-.22-1.66,.07l-.41,.24c-.49,.28-.55,.71-.12,.96l16.55,9.56c.43,.25,1.17,.22,1.66-.07l.41-.24c.49-.28,.55-.71,.12-.96Z"/>
              <path class="cls-10" d="M196.73,296.57l-16.55-9.56c-.43-.25-1.17-.22-1.66,.07l-.41,.24c-.49,.28-.55,.71-.12,.96l16.55,9.56c.43,.25,1.17,.22,1.66-.07l.41-.24c.49-.28,.55-.71,.12-.96Z"/>
              <path class="cls-10" d="M190.12,300.39l-16.55-9.56c-.43-.25-1.17-.22-1.66,.07l-.41,.24c-.49,.28-.55,.71-.12,.96l16.55,9.56c.43,.25,1.17,.22,1.66-.07l.41-.24c.49-.28,.55-.71,.12-.96Z"/>
              <path class="cls-10" d="M183.45,304.24l-16.55-9.56c-.43-.25-1.17-.22-1.66,.07l-.41,.24c-.49,.28-.55,.71-.12,.96l16.55,9.56c.43,.25,1.17,.22,1.66-.07l.41-.24c.49-.28,.55-.71,.12-.96Z"/>
              <path class="cls-10" d="M176.79,308.09l-16.55-9.56c-.43-.25-1.17-.22-1.66,.07l-.41,.24c-.49,.28-.55,.71-.12,.96l16.55,9.56c.43,.25,1.17,.22,1.66-.07l.41-.24c.49-.28,.55-.71,.12-.96Z"/>
              <path class="cls-10" d="M170.2,311.89l-16.55-9.56c-.43-.25-1.17-.22-1.66,.07l-.41,.24c-.49,.28-.55,.71-.12,.96l16.55,9.56c.43,.25,1.17,.22,1.66-.07l.41-.24c.49-.28,.55-.71,.12-.96Z"/>
              <path class="cls-37" d="M234.82,307.54l-22.49-12.99c-.53-.3-1.44-.27-2.05,.09-.61,.35-.67,.88-.15,1.18l22.49,12.99c.53,.3,1.44,.27,2.05-.08,.61-.35,.67-.88,.15-1.18Z"/>
              <path class="cls-37" d="M262.36,323.44l-22.49-12.99c-.53-.3-1.44-.27-2.05,.08-.61,.35-.67,.88-.15,1.18l22.49,12.99c.53,.3,1.44,.27,2.05-.08,.61-.35,.67-.88,.15-1.18Z"/>
              <path class="cls-10" d="M217.07,309.58c1.05-.6,1.04-1.59-.01-2.2-1.05-.61-2.76-.61-3.8,0-1.05,.6-1.04,1.59,.01,2.2s2.76,.61,3.8,0Z"/>
              <path class="cls-10" d="M233.43,319.03c1.05-.6,1.04-1.59-.01-2.2-1.05-.61-2.76-.61-3.8,0-1.05,.6-1.04,1.59,.01,2.2,1.05,.61,2.76,.61,3.8,0Z"/>
              <path class="cls-10" d="M249.79,328.48c1.05-.6,1.04-1.59-.01-2.2-1.05-.61-2.76-.61-3.8,0-1.05,.6-1.04,1.59,.01,2.2,1.05,.61,2.76,.61,3.8,0Z"/>
              <path class="cls-10" d="M266.15,337.92c1.05-.6,1.04-1.59-.01-2.2-1.05-.61-2.76-.61-3.8,0-1.05,.6-1.04,1.59,.01,2.2,1.05,.61,2.76,.61,3.8,0Z"/>
              <path class="cls-10" d="M282.51,347.37c1.05-.6,1.04-1.59-.01-2.2-1.05-.61-2.76-.61-3.8,0-1.05,.6-1.04,1.59,.01,2.2s2.76,.61,3.8,0Z"/>
              <path class="cls-10" d="M210.46,313.4c1.05-.6,1.04-1.59-.01-2.2s-2.76-.61-3.8,0c-1.05,.6-1.04,1.59,.01,2.2s2.76,.61,3.8,0Z"/>
              <path class="cls-10" d="M226.82,322.84c1.05-.6,1.04-1.59-.01-2.2-1.05-.61-2.76-.61-3.8,0-1.05,.6-1.04,1.59,.01,2.2,1.05,.61,2.76,.61,3.8,0Z"/>
              <path class="cls-10" d="M243.18,332.29c1.05-.6,1.04-1.59-.01-2.2-1.05-.61-2.76-.61-3.8,0s-1.04,1.59,.01,2.2c1.05,.61,2.76,.61,3.8,0Z"/>
              <path class="cls-10" d="M259.54,341.74c1.05-.6,1.04-1.59-.01-2.2-1.05-.61-2.76-.61-3.8,0-1.05,.6-1.04,1.59,.01,2.2,1.05,.61,2.76,.61,3.8,0Z"/>
              <path class="cls-10" d="M275.91,351.18c1.05-.6,1.04-1.59-.01-2.2-1.05-.61-2.76-.61-3.8,0-1.05,.6-1.04,1.59,.01,2.2,1.05,.61,2.76,.61,3.8,0Z"/>
              <path class="cls-10" d="M203.85,317.21c1.05-.6,1.04-1.59-.01-2.2-1.05-.61-2.76-.61-3.8,0-1.05,.6-1.04,1.59,.01,2.2,1.05,.61,2.76,.61,3.8,0Z"/>
              <path class="cls-10" d="M220.21,326.66c1.05-.6,1.04-1.59-.01-2.2-1.05-.61-2.76-.61-3.8,0-1.05,.6-1.04,1.59,.01,2.2s2.76,.61,3.8,0Z"/>
              <path class="cls-10" d="M236.58,336.1c1.05-.6,1.04-1.59-.01-2.2s-2.76-.61-3.8,0-1.04,1.59,.01,2.2,2.76,.61,3.8,0Z"/>
              <path class="cls-10" d="M252.94,345.55c1.05-.6,1.04-1.59-.01-2.2-1.05-.61-2.76-.61-3.8,0s-1.04,1.59,.01,2.2c1.05,.61,2.76,.61,3.8,0Z"/>
              <path class="cls-10" d="M269.3,355c1.05-.6,1.04-1.59-.01-2.2-1.05-.61-2.76-.61-3.8,0-1.05,.6-1.04,1.59,.01,2.2,1.05,.61,2.76,.61,3.8,0Z"/>
              <path class="cls-10" d="M197.12,321.1c1.05-.6,1.04-1.59-.01-2.2-1.05-.61-2.76-.61-3.8,0-1.05,.6-1.04,1.59,.01,2.2,1.05,.61,2.76,.61,3.8,0Z"/>
              <path class="cls-10" d="M213.49,330.54c1.05-.6,1.04-1.59-.01-2.2-1.05-.61-2.76-.61-3.8,0-1.05,.6-1.04,1.59,.01,2.2,1.05,.61,2.76,.61,3.8,0Z"/>
              <path class="cls-10" d="M229.85,339.99c1.05-.6,1.04-1.59-.01-2.2-1.05-.61-2.76-.61-3.8,0-1.05,.6-1.04,1.59,.01,2.2s2.76,.61,3.8,0Z"/>
              <path class="cls-10" d="M246.21,349.44c1.05-.6,1.04-1.59-.01-2.2s-2.76-.61-3.8,0c-1.05,.6-1.04,1.59,.01,2.2s2.76,.61,3.8,0Z"/>
              <path class="cls-10" d="M262.57,358.88c1.05-.6,1.04-1.59-.01-2.2-1.05-.61-2.76-.61-3.8,0s-1.04,1.59,.01,2.2c1.05,.61,2.76,.61,3.8,0Z"/>
              <path class="cls-10" d="M190.54,324.9c1.05-.6,1.04-1.59-.01-2.2-1.05-.61-2.76-.61-3.8,0-1.05,.6-1.04,1.59,.01,2.2,1.05,.61,2.76,.61,3.8,0Z"/>
              <path class="cls-10" d="M206.9,334.35c1.05-.6,1.04-1.59-.01-2.2-1.05-.61-2.76-.61-3.8,0-1.05,.6-1.04,1.59,.01,2.2,1.05,.61,2.76,.61,3.8,0Z"/>
              <path class="cls-10" d="M223.26,343.79c1.05-.6,1.04-1.59-.01-2.2-1.05-.61-2.76-.61-3.8,0-1.05,.6-1.04,1.59,.01,2.2,1.05,.61,2.76,.61,3.8,0Z"/>
              <path class="cls-10" d="M239.62,353.24c1.05-.6,1.04-1.59-.01-2.2-1.05-.61-2.76-.61-3.8,0-1.05,.6-1.04,1.59,.01,2.2s2.76,.61,3.8,0Z"/>
              <path class="cls-10" d="M255.98,362.68c1.05-.6,1.04-1.59-.01-2.2s-2.76-.61-3.8,0c-1.05,.6-1.04,1.59,.01,2.2s2.76,.61,3.8,0Z"/>
            </g>
          </g>
        </g>
        <g>
          <polygon class="cls-38" points="117.41 19.69 112.93 20.82 115.9 23.58 117.01 21.11 117.41 19.69"/>
          <polygon class="cls-38" points="183.51 97.54 179.12 98.64 179.67 85.34 182.23 86.07 183.51 97.54"/>
          <path class="cls-38" d="M184.21,56.95L120.49,20.16c-2.39-1.38-4.59-.43-4.93,2.11l-2.59,19.67c-.34,2.54,1.33,5.72,3.71,7.1l62.33,35.99,4.49,12.51,2.14-16.23,2.28-17.26c.34-2.54-1.33-5.72-3.71-7.1Z"/>
          <path class="cls-3" d="M179.82,58.05L116.1,21.26c-2.39-1.38-4.59-.43-4.93,2.11l-2.59,19.67c-.34,2.54,1.33,5.72,3.71,7.1l62.33,35.99,4.49,12.51,2.14-16.23,2.28-17.26c.34-2.54-1.33-5.72-3.71-7.1Z"/>
          <polygon class="cls-15" points="125.83 33.24 127.59 40.01 133.01 44.06 128.46 45.9 128.63 52.32 124.05 46.69 118.74 46.61 120.46 41.28 117.01 34.81 122.65 37.15 125.83 33.24"/>
          <polygon class="cls-15" points="146.79 45.34 148.56 52.11 153.97 56.16 149.42 58.01 149.6 64.43 145.01 58.8 139.7 58.71 141.42 53.39 137.97 46.92 143.61 49.25 146.79 45.34"/>
          <polygon class="cls-15" points="117.01 34.81 113.71 35.91 122.99 44.85 125.34 53.42 128.63 52.32 125.01 44.81 117.01 34.81"/>
          <polygon class="cls-15" points="167.75 57.44 169.52 64.21 174.94 68.26 170.39 70.11 170.56 76.53 165.98 70.9 160.67 70.82 162.39 65.49 158.93 59.02 164.58 61.36 167.75 57.44"/>
          <polygon class="cls-15" points="122.53 34.33 125.83 33.24 123.55 38.22 122.53 37.76 122.53 34.33"/>
          <polygon class="cls-11" points="122.53 34.33 124.3 41.1 129.72 45.15 125.17 47 125.34 53.42 120.76 47.79 115.45 47.71 117.17 42.38 113.71 35.91 119.35 38.25 122.53 34.33"/>
          <polygon class="cls-15" points="134.68 48.02 137.97 46.92 141.84 49.56 143.5 46.44 146.79 45.34 149.6 64.43 146.3 65.52 142.14 55.98 134.68 48.02"/>
          <polygon class="cls-15" points="167.75 57.44 164.46 58.54 162.97 62.94 158.93 59.02 155.64 60.12 164.96 67.61 167.27 77.63 170.56 76.53 167.91 68.08 167.75 57.44"/>
          <polygon class="cls-11" points="143.5 46.44 145.26 53.21 150.68 57.26 146.13 59.11 146.3 65.52 141.72 59.9 136.41 59.81 138.13 54.49 134.68 48.02 140.32 50.35 143.5 46.44"/>
          <polygon class="cls-11" points="164.46 58.54 166.23 65.31 171.64 69.36 167.09 71.21 167.27 77.63 162.68 72 157.37 71.92 159.09 66.59 155.64 60.12 161.28 62.46 164.46 58.54"/>
        </g>
        <g>
          <g>
            <polygon class="cls-50" points="38.74 279.86 12.4 208.5 176.32 188.9 202.66 260.25 38.74 279.86"/>
            <polygon class="cls-8" points="38.74 278.53 12.4 207.18 176.32 187.58 202.66 258.93 38.74 278.53"/>
            <polygon class="cls-39" points="180.97 246.28 165.41 204.13 170.65 203.5 186.22 245.66 180.97 246.28"/>
            <polygon class="cls-18" points="149.97 231.37 142.64 211.51 146.72 211.02 154.05 230.88 149.97 231.37"/>
            <polygon class="cls-18" points="159.74 257.84 150.69 233.32 154.77 232.83 163.83 257.35 159.74 257.84"/>
            <polygon class="cls-47" points="145.31 237.16 136.13 212.29 140.22 211.8 149.4 236.67 145.31 237.16"/>
            <polygon class="cls-47" points="153.24 258.62 145.93 238.83 150.02 238.34 157.32 258.13 153.24 258.62"/>
            <polygon class="cls-47" points="136.84 232.9 129.54 213.11 133.62 212.62 140.93 232.41 136.84 232.9"/>
            <polygon class="cls-18" points="126.13 234.22 118.8 214.36 122.88 213.87 130.21 233.73 126.13 234.22"/>
            <polygon class="cls-18" points="135.9 260.69 126.85 236.17 130.93 235.68 139.99 260.21 135.9 260.69"/>
            <polygon class="cls-47" points="121.47 240.01 112.29 215.14 116.38 214.65 125.56 239.52 121.47 240.01"/>
            <polygon class="cls-47" points="129.4 261.47 122.09 241.68 126.18 241.2 133.48 260.98 129.4 261.47"/>
            <polygon class="cls-47" points="113 235.75 105.7 215.96 109.78 215.47 117.09 235.26 113 235.75"/>
            <polygon class="cls-18" points="102.24 237.07 94.91 217.21 98.99 216.73 106.32 236.58 102.24 237.07"/>
            <polygon class="cls-18" points="112.01 263.55 102.96 239.02 107.05 238.54 116.1 263.06 112.01 263.55"/>
            <polygon class="cls-47" points="97.58 242.87 88.4 217.99 92.49 217.5 101.67 242.38 97.58 242.87"/>
            <polygon class="cls-47" points="105.51 264.33 98.2 244.54 102.29 244.05 109.59 263.84 105.51 264.33"/>
            <polygon class="cls-47" points="89.11 238.61 81.81 218.82 85.89 218.33 93.2 238.12 89.11 238.61"/>
            <polygon class="cls-18" points="78.35 239.93 71.02 220.07 75.1 219.58 82.44 239.44 78.35 239.93"/>
            <polygon class="cls-18" points="88.12 266.41 79.07 241.88 83.16 241.39 92.21 265.92 88.12 266.41"/>
            <polygon class="cls-47" points="73.7 245.73 64.51 220.85 68.6 220.36 77.78 245.24 73.7 245.73"/>
            <polygon class="cls-47" points="81.62 267.19 74.31 247.4 78.4 246.91 85.7 266.7 81.62 267.19"/>
            <polygon class="cls-47" points="65.22 241.46 57.92 221.67 62.01 221.19 69.31 240.97 65.22 241.46"/>
            <polygon class="cls-18" points="54.46 242.79 47.13 222.93 51.22 222.44 58.55 242.3 54.46 242.79"/>
            <polygon class="cls-18" points="64.23 269.27 55.18 244.74 59.27 244.25 68.32 268.78 64.23 269.27"/>
            <polygon class="cls-47" points="49.81 248.58 40.62 223.71 44.71 223.22 53.89 248.09 49.81 248.58"/>
            <polygon class="cls-47" points="57.73 270.04 50.42 250.25 54.51 249.77 61.81 269.55 57.73 270.04"/>
            <polygon class="cls-47" points="41.33 244.32 34.03 224.53 38.12 224.04 45.42 243.83 41.33 244.32"/>
            <polygon class="cls-39" points="168.86 239.87 158.86 212.77 164.1 212.14 174.11 239.25 168.86 239.87"/>
            <path class="cls-42" d="M131.61,209.83c-2.08,0-3.94-.9-4.43-2.22l-1.92-5.2c-.22-.6-.15-1.24,.19-1.8,.56-.91,1.81-1.57,3.33-1.75l9-1.08c2.41-.29,4.74,.66,5.29,2.17l1.92,5.2c.22,.6,.15,1.24-.19,1.8-.56,.91-1.81,1.57-3.33,1.75l-9,1.08c-.29,.03-.58,.05-.86,.05Zm7.05-10.72c-.23,0-.47,.01-.71,.04l-9,1.08c-1.08,.13-1.98,.56-2.31,1.1-.12,.2-.15,.39-.07,.6l1.92,5.2c.29,.78,1.93,1.5,3.83,1.27l9-1.08c1.08-.13,1.99-.56,2.31-1.1,.12-.2,.15-.39,.07-.59l-1.92-5.21c-.25-.68-1.53-1.32-3.11-1.32Z"/>
            <path class="cls-42" d="M107.72,212.69c-2.08,0-3.94-.9-4.43-2.22l-1.92-5.2c-.22-.6-.15-1.24,.19-1.8,.56-.91,1.81-1.57,3.33-1.75l9-1.08c2.41-.29,4.74,.67,5.29,2.17l1.92,5.2c.22,.6,.15,1.24-.19,1.8-.56,.91-1.81,1.57-3.33,1.75l-9,1.08c-.29,.03-.58,.05-.86,.05Zm7.05-10.72c-.23,0-.47,.01-.71,.04l-9,1.08c-1.08,.13-1.99,.56-2.31,1.1-.12,.2-.15,.39-.07,.59l1.92,5.2c.29,.78,1.93,1.5,3.83,1.27l9-1.08c1.08-.13,1.98-.56,2.31-1.1,.12-.2,.15-.39,.07-.6l-1.92-5.2c-.25-.68-1.53-1.32-3.11-1.32Z"/>
            <path class="cls-42" d="M83.83,215.55c-2.08,0-3.94-.9-4.43-2.22l-1.92-5.2c-.22-.6-.15-1.24,.19-1.8,.56-.91,1.81-1.57,3.34-1.75l9-1.08c2.41-.29,4.74,.67,5.29,2.17l1.92,5.21c.22,.6,.15,1.24-.19,1.8-.56,.91-1.8,1.57-3.33,1.75l-9,1.08c-.29,.03-.58,.05-.86,.05Zm7.05-10.72c-.23,0-.47,.01-.71,.04l-9,1.08c-1.08,.13-1.98,.56-2.31,1.1-.12,.2-.15,.39-.07,.59l1.92,5.2c.29,.78,1.93,1.5,3.83,1.27l9-1.08c1.08-.13,1.99-.56,2.31-1.1,.12-.2,.15-.39,.07-.59l-1.92-5.2c-.25-.68-1.53-1.32-3.11-1.32Z"/>
            <path class="cls-42" d="M59.94,218.4c-2.08,0-3.94-.9-4.43-2.22l-1.92-5.2c-.22-.6-.15-1.24,.19-1.8,.56-.91,1.81-1.57,3.33-1.75l9-1.08c2.41-.29,4.74,.67,5.29,2.17l1.92,5.2c.22,.6,.15,1.24-.19,1.8-.56,.91-1.81,1.57-3.33,1.75l-9,1.08c-.29,.03-.58,.05-.86,.05Zm7.05-10.72c-.23,0-.47,.01-.71,.04l-9,1.08c-1.08,.13-1.98,.56-2.31,1.1-.12,.2-.15,.39-.07,.59l1.92,5.21c.29,.78,1.93,1.5,3.83,1.27l9-1.08c1.08-.13,1.98-.56,2.31-1.1,.12-.2,.15-.39,.07-.6l-1.92-5.2c-.25-.68-1.53-1.32-3.11-1.32Z"/>
            <path class="cls-42" d="M36.05,221.26c-2.08,0-3.94-.9-4.43-2.22l-1.92-5.2c-.22-.6-.15-1.24,.19-1.8,.56-.91,1.81-1.57,3.33-1.75l9-1.08c2.41-.28,4.74,.66,5.29,2.17l1.92,5.2c.22,.6,.15,1.24-.19,1.8-.56,.91-1.81,1.57-3.33,1.75l-9,1.08c-.29,.03-.58,.05-.86,.05Zm-3.13-2.7c.29,.78,1.93,1.5,3.83,1.27l9-1.08c1.08-.13,1.98-.56,2.31-1.1,.12-.2,.15-.39,.07-.6l-1.92-5.2c-.29-.78-1.93-1.5-3.83-1.27l-9,1.08c-1.08,.13-1.98,.56-2.31,1.1-.12,.2-.15,.39-.07,.59l1.92,5.2Z"/>
          </g>
          <g>
            <polygon class="cls-50" points="89.52 276.29 0 224.6 118.15 156.39 207.66 208.07 89.52 276.29"/>
            <polygon class="cls-8" points="89.52 274.97 0 223.28 118.15 155.07 207.66 206.75 89.52 274.97"/>
            <polygon class="cls-39" points="177.6 202.96 124.71 172.43 128.49 170.25 181.38 200.78 177.6 202.96"/>
            <polygon class="cls-18" points="137.62 200.2 112.71 185.82 115.65 184.12 140.57 198.5 137.62 200.2"/>
            <polygon class="cls-18" points="170.84 219.38 140.07 201.62 143.01 199.92 173.79 217.68 170.84 219.38"/>
            <polygon class="cls-47" points="139.23 206.54 108.02 188.53 110.96 186.83 142.17 204.84 139.23 206.54"/>
            <polygon class="cls-47" points="166.15 222.09 141.33 207.76 144.27 206.06 169.1 220.39 166.15 222.09"/>
            <polygon class="cls-47" points="128.13 205.63 103.3 191.3 106.25 189.6 131.07 203.93 128.13 205.63"/>
            <polygon class="cls-18" points="120.44 210.12 95.53 195.74 98.47 194.04 123.38 208.42 120.44 210.12"/>
            <polygon class="cls-18" points="153.66 229.3 122.89 211.54 125.83 209.84 156.6 227.6 153.66 229.3"/>
            <polygon class="cls-47" points="122.04 216.46 90.84 198.45 93.78 196.75 124.99 214.76 122.04 216.46"/>
            <polygon class="cls-47" points="148.97 232.01 124.14 217.68 127.09 215.98 151.91 230.31 148.97 232.01"/>
            <polygon class="cls-47" points="110.95 215.55 86.12 201.22 89.06 199.52 113.89 213.85 110.95 215.55"/>
            <polygon class="cls-18" points="103.22 220.06 78.31 205.68 81.25 203.98 106.17 218.36 103.22 220.06"/>
            <polygon class="cls-18" points="136.44 239.24 105.67 221.48 108.61 219.78 139.38 237.54 136.44 239.24"/>
            <polygon class="cls-47" points="104.83 226.41 73.62 208.39 76.56 206.69 107.77 224.71 104.83 226.41"/>
            <polygon class="cls-47" points="131.75 241.95 106.92 227.62 109.87 225.92 134.69 240.25 131.75 241.95"/>
            <polygon class="cls-47" points="93.73 225.5 68.9 211.16 71.84 209.46 96.67 223.8 93.73 225.5"/>
            <polygon class="cls-18" points="86 230.01 61.09 215.62 64.03 213.92 88.95 228.31 86 230.01"/>
            <polygon class="cls-18" points="119.22 249.18 88.45 231.42 91.39 229.72 122.17 247.48 119.22 249.18"/>
            <polygon class="cls-47" points="87.61 236.35 56.4 218.33 59.34 216.63 90.55 234.65 87.61 236.35"/>
            <polygon class="cls-47" points="114.53 251.89 89.7 237.56 92.65 235.86 117.48 250.19 114.53 251.89"/>
            <polygon class="cls-47" points="76.51 235.44 51.68 221.1 54.62 219.4 79.45 233.74 76.51 235.44"/>
            <polygon class="cls-18" points="68.78 239.95 43.87 225.56 46.81 223.86 71.73 238.25 68.78 239.95"/>
            <polygon class="cls-18" points="102 259.13 71.23 241.36 74.18 239.66 104.95 257.43 102 259.13"/>
            <polygon class="cls-47" points="70.39 246.29 39.18 228.27 42.12 226.57 73.33 244.59 70.39 246.29"/>
            <polygon class="cls-47" points="97.31 261.83 72.49 247.5 75.43 245.8 100.26 260.13 97.31 261.83"/>
            <polygon class="cls-47" points="59.29 245.38 34.46 231.04 37.41 229.34 62.23 243.68 59.29 245.38"/>
            <polygon class="cls-39" points="161.43 201.39 127.43 181.76 131.21 179.58 165.22 199.21 161.43 201.39"/>
            <path class="cls-42" d="M99.01,188.42c-1.02,0-2-.21-2.75-.64l-6.92-4c-.85-.49-1.32-1.21-1.32-2.02,0-.92,.62-1.8,1.71-2.43l6.07-3.5c1.85-1.07,4.57-1.16,6.2-.23l6.92,4c.85,.49,1.32,1.21,1.32,2.02,0,.92-.62,1.8-1.71,2.43l-6.07,3.5c-1,.58-2.25,.87-3.45,.87Zm.25-11.96c-.94,0-1.95,.23-2.71,.67l-6.07,3.5c-.59,.34-.96,.77-.96,1.13s.36,.6,.57,.72l6.92,4c1.17,.67,3.32,.57,4.7-.23l6.06-3.5c.59-.34,.96-.77,.96-1.13s-.36-.6-.57-.72l-6.92-4c-.52-.3-1.23-.45-1.98-.45Z"/>
            <path class="cls-42" d="M81.79,198.36c-1.02,0-2-.21-2.75-.64l-6.92-4c-.85-.49-1.32-1.21-1.32-2.02,0-.92,.62-1.8,1.71-2.43l6.07-3.5c1.85-1.07,4.57-1.17,6.2-.23l6.92,4c.85,.49,1.32,1.21,1.32,2.02,0,.92-.62,1.8-1.71,2.43l-6.07,3.5c-1,.58-2.25,.87-3.45,.87Zm.25-11.96c-.94,0-1.95,.23-2.71,.67l-6.07,3.5c-.59,.34-.96,.77-.96,1.13s.36,.6,.57,.72l6.92,4c1.17,.67,3.32,.57,4.7-.23l6.06-3.5c.59-.34,.96-.77,.96-1.13s-.36-.6-.57-.72l-6.92-4c-.52-.3-1.23-.45-1.99-.45Z"/>
            <path class="cls-42" d="M64.57,208.3c-1.02,0-2-.21-2.75-.64l-6.92-4c-.85-.49-1.32-1.2-1.32-2.01,0-.92,.62-1.8,1.71-2.43l6.07-3.5c1.85-1.07,4.57-1.17,6.2-.23l6.92,4c.85,.49,1.32,1.21,1.32,2.02,0,.92-.62,1.8-1.71,2.43l-6.07,3.5c-1,.58-2.25,.87-3.45,.87Zm.25-11.96c-.94,0-1.95,.23-2.71,.67l-6.07,3.5c-.59,.34-.96,.78-.96,1.13,0,.34,.36,.59,.57,.72l6.92,4c1.17,.67,3.32,.57,4.7-.23l6.06-3.5c.59-.34,.96-.77,.96-1.13s-.36-.6-.57-.72l-6.92-4c-.52-.3-1.23-.45-1.98-.45Z"/>
            <path class="cls-42" d="M47.35,218.24c-1.02,0-2-.21-2.75-.64l-6.92-4c-.85-.49-1.32-1.2-1.32-2.01,0-.92,.62-1.8,1.71-2.43l6.07-3.5c1.85-1.07,4.57-1.17,6.2-.23l6.92,4c.85,.49,1.32,1.21,1.32,2.01,0,.92-.62,1.8-1.71,2.43l-6.07,3.5c-1,.58-2.25,.87-3.45,.87Zm-2-1.94c1.17,.67,3.32,.57,4.7-.23l6.06-3.5c.59-.34,.96-.78,.96-1.13,0-.34-.36-.59-.57-.72l-6.92-4c-1.17-.67-3.32-.57-4.7,.23l-6.06,3.5c-.59,.34-.96,.78-.96,1.13,0,.34,.36,.59,.57,.72l6.92,4Z"/>
            <path class="cls-42" d="M30.13,228.19c-1.02,0-2-.21-2.75-.64l-6.92-4c-.85-.49-1.32-1.2-1.32-2.01,0-.92,.62-1.8,1.71-2.43l6.07-3.5c1.85-1.06,4.57-1.17,6.2-.23l6.92,4c.85,.49,1.32,1.21,1.32,2.01,0,.92-.62,1.8-1.71,2.43l-6.07,3.5c-1,.58-2.25,.87-3.45,.87Zm-2-1.94c1.17,.67,3.32,.57,4.7-.23l6.07-3.5c.59-.34,.96-.78,.96-1.13,0-.34-.36-.59-.57-.72l-6.92-4c-1.17-.67-3.32-.57-4.7,.23l-6.06,3.5c-.59,.34-.96,.78-.96,1.13s.36,.59,.57,.72l6.92,4Z"/>
          </g>
        </g>
        <polygon class="cls-5" points="125.35 118.22 126.16 120.37 124.82 121.31 124.67 120.48 125.35 118.22"/>
        <g>
          <g>
            <path class="cls-5" d="M103.2,78.49c-4.44,1.91-5.33,8.64-1.98,15.05,3.35,6.41,9.67,10.05,14.11,8.15,4.44-1.91,5.33-8.64,1.98-15.05-3.35-6.41-9.67-10.05-14.11-8.15Zm10.49,20.06c-3.24,1.39-7.85-1.27-10.3-5.95s-1.8-9.59,1.45-10.98c3.24-1.39,7.85,1.27,10.3,5.95s1.8,9.59-1.45,10.98Z"/>
            <polygon class="cls-5" points="119.02 105.35 116.2 106.56 113.1 100.63 115.92 99.42 119.02 105.35"/>
            <path class="cls-5" d="M125.85,120.57l-.99,.43c-.85,.37-2.06-.33-2.71-1.56l-6.42-12.28c-.64-1.23-.47-2.52,.38-2.89l.99-.43c.85-.37,2.06,.33,2.71,1.56l6.42,12.28c.64,1.23,.47,2.52-.38,2.89Z"/>
          </g>
          <g>
            <path class="cls-39" d="M101.93,79.38c-4.44,1.91-5.33,8.64-1.98,15.05,3.35,6.41,9.67,10.05,14.11,8.15,4.44-1.91,5.33-8.64,1.98-15.05-3.35-6.41-9.67-10.05-14.11-8.15Zm10.49,20.06c-3.24,1.39-7.85-1.27-10.3-5.95s-1.8-9.59,1.45-10.98c3.24-1.39,7.85,1.27,10.3,5.95s1.8,9.59-1.45,10.98Z"/>
            <polygon class="cls-39" points="117.74 106.24 114.92 107.45 111.82 101.52 114.64 100.32 117.74 106.24"/>
            <path class="cls-39" d="M124.58,121.46l-.99,.43c-.85,.37-2.06-.33-2.71-1.56l-6.42-12.28c-.64-1.23-.47-2.52,.38-2.89l.99-.43c.85-.37,2.06,.33,2.71,1.56l6.42,12.28c.64,1.23,.47,2.52-.38,2.88Z"/>
          </g>
        </g>
        <g>
          <path class="cls-50" d="M298.57,296.79l-7.59-11.63c-1.05-1.61,.35-4.5,3.14-5.1l20.1-4.31c2.78-.6,5.89,.23,6.95,1.84l7.59,12.73c1.05,1.61-.35,3.4-3.14,4l-20.1,4.31c-2.78,.6-5.89-.23-6.95-1.84Z"/>
          <polygon class="cls-7" points="286.24 284.25 286.24 279.45 287.8 280.35 287.63 283.06 286.24 284.25"/>
          <path class="cls-7" d="M294.18,296.79l-7.59-11.63c-1.05-1.61,.35-4.5,3.14-5.1l20.1-4.31c2.78-.6,5.89,.23,6.95,1.84l7.59,12.73c1.05,1.61-.35,3.4-3.14,4l-20.1,4.31c-2.78,.6-5.89-.23-6.95-1.84Z"/>
          <polygon class="cls-7" points="324.71 291.53 324.71 286.98 321.46 286.64 322.79 290.87 324.71 291.53"/>
          <path class="cls-6" d="M294.18,292.55l-7.59-11.63c-1.05-1.61,.35-3.4,3.14-4l20.1-4.31c2.78-.6,5.89,.23,6.95,1.84l7.59,11.63c1.05,1.61-.35,3.4-3.14,4l-20.1,4.31c-2.78,.6-5.89-.23-6.95-1.84Z"/>
          <path class="cls-10" d="M317.09,289.73c-.08,0-.15,0-.23-.01l-20.3-2.59c-.7-.09-1.28-.58-1.48-1.25-.2-.67,0-1.4,.53-1.86l9.4-8.27c.74-.65,1.87-.58,2.52,.16,.65,.74,.58,1.87-.16,2.52l-6.43,5.66,16.38,2.09c.98,.12,1.67,1.02,1.54,2-.11,.9-.88,1.56-1.77,1.56Z"/>
        </g>
        <g>
          <path class="cls-50" d="M347.44,336.56l-18.7-6.17c-2.59-.86-3.5-3.85-2.04-5.34l10.57-10.76c1.46-1.49,4.75-2.01,7.34-1.15l18.7,6.17c2.59,.86,3.5,3.85,2.04,5.34l-10.57,10.76c-1.46,1.49-4.75,2.01-7.34,1.15Z"/>
          <path class="cls-36" d="M343.74,340.32l-18.7-6.17c-2.59-.86-3.5-3.85-2.04-5.34l10.57-10.76c1.46-1.49,4.75-2.01,7.34-1.15l18.7,6.17c2.59,.86,3.5,3.85,2.04,5.34l-10.57,10.76c-1.46,1.49-4.75,2.01-7.34,1.15Z"/>
          <polygon class="cls-36" points="362.35 326.78 362.32 322.27 360.54 322.86 361.57 325.15 362.35 326.78"/>
          <polygon class="cls-36" points="322.3 331.36 322.3 326.87 324.51 329.27 322.3 331.36"/>
          <path class="cls-18" d="M343.74,335.93l-18.7-6.17c-2.59-.86-3.5-2.76-2.04-4.25l10.57-10.76c1.46-1.49,4.75-2.01,7.34-1.15l18.7,6.17c2.59,.86,3.5,2.76,2.04,4.25l-10.57,10.76c-1.46,1.49-4.75,2.01-7.34,1.15Z"/>
          <g>
            <path class="cls-10" d="M345.58,333.43c-.65,0-1.28-.36-1.59-.97l-7.11-13.92c-.45-.88-.1-1.95,.78-2.4,.88-.45,1.95-.1,2.4,.78l7.11,13.92c.45,.88,.1,1.95-.78,2.4-.26,.13-.54,.2-.81,.2Z"/>
            <path class="cls-10" d="M329.87,328.24c-.88,0-1.65-.65-1.77-1.55-.13-.98,.56-1.87,1.54-2l24.77-3.25c.99-.13,1.87,.56,2,1.54,.13,.98-.56,1.87-1.54,2l-24.77,3.25c-.08,.01-.16,.02-.23,.02Z"/>
          </g>
        </g>
        <g>
          <path class="cls-45" d="M341.93,290.8c-1.24-.71-1.97-2.29-1.64-3.51l32.51-120.45c.33-1.23,1.6-1.64,2.84-.93,1.24,.71,1.97,2.29,1.64,3.51l-32.51,120.45c-.33,1.23-1.6,1.64-2.84,.93Z"/>
          <path class="cls-45" d="M378.89,312.14c-1.24-.71-1.97-2.29-1.64-3.51l32.51-120.45c.33-1.23,1.6-1.64,2.84-.93,1.24,.71,1.97,2.29,1.64,3.51l-32.51,120.45c-.33,1.23-1.6,1.64-2.84,.93Z"/>
          <path class="cls-45" d="M390.08,270.7l-.55,2.03c-.18,.66-.87,.89-1.54,.5l-34.53-19.94c-.67-.39-1.07-1.24-.89-1.9l.55-2.03c.18-.66,.87-.89,1.54-.5l34.53,19.94c.67,.39,1.07,1.24,.89,1.9Z"/>
          <path class="cls-45" d="M401.71,227.62l-.55,2.03c-.18,.67-.87,.89-1.54,.5l-34.53-19.94c-.67-.39-1.07-1.24-.89-1.9l.55-2.03c.18-.66,.87-.89,1.54-.5l34.53,19.94c.67,.39,1.07,1.24,.89,1.9Z"/>
          <path class="cls-45" d="M395.89,249.16l-.55,2.03c-.18,.67-.87,.89-1.54,.5l-34.53-19.94c-.67-.39-1.07-1.24-.89-1.9l.55-2.03c.18-.67,.87-.89,1.54-.5l34.53,19.94c.67,.39,1.07,1.24,.89,1.9Z"/>
          <path class="cls-45" d="M407.52,206.08l-.55,2.03c-.18,.66-.87,.89-1.54,.5l-34.53-19.94c-.67-.39-1.07-1.24-.89-1.9l.55-2.03c.18-.67,.87-.89,1.54-.5l34.53,19.94c.67,.39,1.07,1.24,.89,1.9Z"/>
          <path class="cls-45" d="M384.26,292.24l-.55,2.03c-.18,.67-.87,.89-1.54,.5l-34.53-19.94c-.67-.39-1.07-1.24-.89-1.9l.55-2.03c.18-.67,.87-.89,1.54-.5l34.53,19.94c.67,.39,1.07,1.24,.89,1.9Z"/>
        </g>
        <g>
          <g>
            <path class="cls-20" d="M207.92,283.36c-.49,3.29-1.03,6.5-1.63,9.75-.61,3.25-1.26,6.48-2.17,9.79-.25,.84-.48,1.66-.83,2.57-.17,.47-.33,.83-.49,1.2l-.48,1.12-1.94,4.48-3.88,8.96c-.46,1.06-1.7,1.55-2.76,1.09-1.01-.44-1.5-1.57-1.16-2.59,0-.02,3.12-9.25,3.12-9.25l1.56-4.62,.39-1.15c.13-.39,.27-.78,.34-1.09,.19-.62,.36-1.38,.51-2.11,.6-3,1.01-6.2,1.38-9.37,.36-3.18,.66-6.4,.9-9.57,.15-2.01,1.88-3.49,3.87-3.34,1.98,.15,3.46,1.88,3.31,3.86,0,.08-.02,.18-.03,.26Z"/>
            <path class="cls-2" d="M206.68,279.51s-6.3-2.88-6.6,5.14c-.3,8.01-2.4,17.75-2.4,17.75l-4.79,13.39,5.43,2.72,6.03-13.96,5.03-17.18-2.69-7.86Z"/>
            <path class="cls-11" d="M224.91,315.13l-18.73-6.05v-27.58c0-2.36,1.44-3.45,3.21-2.43l12.31,7.11c1.77,1.02,3.21,3.77,3.21,6.13v22.82Z"/>
            <rect class="cls-20" x="210.92" y="277.68" width="5.99" height="6.49" transform="translate(-45.92 41.83) rotate(-10.09)"/>
            <path class="cls-12" d="M216.47,278.15l-.17-.95-5.9,1.05,.59,3.29c2.16-.32,4.08-1.62,5.48-3.39Z"/>
            <path class="cls-20" d="M218.87,270.49c0,4.91-3.98,10.09-8.89,10.09s-7.09-5.78-7.09-10.69,2.18-8.29,7.09-8.29,8.89,3.98,8.89,8.89Z"/>
            <path class="cls-39" d="M204.77,375.13c.04,.76-.32,1.48-.91,1.96-1.8,1.46-6.95,5.56-9.21,6.54-1.2,.52-5.59,1.46-4.39-1.86,1.2-3.33,5.32-6.39,6.26-9.18,0,0,4.13-3.99,5.72-2,1.23,1.53,2.45,2.99,2.53,4.55Z"/>
            <path d="M208.98,260.9l-7.49,3.1s-1.8,.7-.4,2.7c1.4,2,5.49,5.09,8.89,2.9,3.4-2.2,4.49,1.3,5.69,2.3,0,0,2.19-.96,1.8,1.5s-2,3.9-.8,3.9,4.39-6.39,.85-12.19c-3.54-5.79-8.54-4.2-8.54-4.2Z"/>
            <path class="cls-25" d="M195.39,367.77l1.7,4.99s.54,.87,2.5,0c1.59-.71,1.64-1.7,1.64-1.7l-1.26-5.99-4.58,2.7Z"/>
            <path class="cls-39" d="M188.3,377.14c-.2,.73-.77,1.31-1.48,1.58-2.17,.82-8.35,3.08-10.81,3.3-1.31,.12-5.77-.37-3.58-3.15,2.19-2.78,7.07-4.38,8.83-6.74,0,0,5.18-2.49,6.06-.09,.68,1.84,1.39,3.61,.97,5.11Z"/>
            <path class="cls-25" d="M181.73,367.2l.04,5.27s.23,1,2.37,.79c1.73-.17,2.09-1.09,2.09-1.09l.7-6.08-5.19,1.12Z"/>
            <path class="cls-40" d="M217.52,311.38s4.51,10.94-.11,15.34c-4.61,4.4-27.83,8.49-28.49,13.31-.57,4.21-.8,19.29-.98,25.86-.05,1.88-1.5,3.06-3.37,3.14-.07,0-.13,0-.2,0-2.36,.03-4.33-1.58-4.44-3.94l-1.36-29.89s-.68-6.38,7.54-10.09,17.19-10.85,17.19-10.85l14.22-2.88Z"/>
            <path class="cls-39" d="M223.96,315.78s4.7,11.15-.11,15.34c-6.02,5.25-25.97,6.24-26.63,11.06-.57,4.23,2.58,16.1,4.17,23.43,.28,1.29-1.23,3.15-3.23,3.43-2.5,.31-4.5-.42-5.27-2.79l-6.21-26.39c-.44-1.35-.5-2.82-.08-4.18,.67-2.18,1.76-3.13,5.93-6.18,8.07-5.92,17.19-10.85,17.19-10.85l14.22-2.88Z"/>
            <path class="cls-11" d="M217.37,325.22s1.39,.21,3.39-.18c2.41-.47,6.4-.76,6.4-3.22l-2.24-27.44-16.61-12.81-1.62-2.06s-5.03,.64-6.2,8.81c0,0,.21,6.54,.6,8.34,.26,1.15-.23,11.51-.6,16.22v3.55s6.1,8.39,16.89,8.79Z"/>
            <path class="cls-20" d="M212.31,281.54l-1.18,.8s-1.93,2.6,1.22,3.28c3.15,.67,5.09-2.02,5.09-2.02l-4-2.05h-1.12Z"/>
            <g>
              <polygon class="cls-43" points="215.65 329.42 215.65 328.47 213.35 328.47 214.24 329.29 215.65 329.42"/>
              <polygon class="cls-43" points="200.58 338.12 180.99 326.82 196.07 318.11 215.65 329.42 200.58 338.12"/>
              <polygon class="cls-34" points="200.58 337.17 180.99 325.87 196.07 317.16 215.65 328.47 200.58 337.17"/>
              <polygon class="cls-25" points="182.38 308.98 182 308.7 181.31 309.08 181.85 309.78 182.38 308.98"/>
              <polygon class="cls-25" points="201.23 336.8 200.55 337.17 199.97 336.11 200.1 335.23 201.23 336.8"/>
              <path class="cls-33" d="M201.23,336.8l-19.56-11.29v-16.23c0-.51,.56-.84,1-.58l17.53,10.12c.64,.37,1.03,1.04,1.03,1.78v16.2Z"/>
              <path class="cls-43" d="M200.55,337.17l-19.56-11.29v-16.23c0-.51,.56-.84,1-.58l17.53,10.12c.64,.37,1.03,1.04,1.03,1.78v16.2Z"/>
              <polygon class="cls-43" points="181.67 325.28 180.99 325.88 180.99 326.82 181.84 326.93 182.05 326.48 182.05 325.73 181.67 325.28"/>
              <ellipse class="cls-25" cx="190.77" cy="323.08" rx=".77" ry="1.34" transform="translate(-136.97 140.44) rotate(-30.31)"/>
            </g>
            <path class="cls-20" d="M225.5,290.45c.51,3.84,.83,7.56,.97,11.41,.07,1.92,.07,3.85-.03,5.82-.13,1.99-.29,3.98-.98,6.22-.09,.28-.18,.56-.31,.86-.12,.29-.24,.59-.42,.91-.09,.16-.16,.31-.26,.46l-.34,.49-.18,.24-.14,.16-.28,.31-.57,.6-.57,.53c-.38,.36-.76,.69-1.14,1-1.52,1.27-3.07,2.39-4.63,3.48-3.13,2.14-6.29,4.11-9.56,6-1,.58-2.29,.24-2.87-.76-.56-.96-.27-2.17,.63-2.79,3.03-2.05,6.02-4.21,8.84-6.44,1.4-1.12,2.78-2.28,4.01-3.47,.31-.3,.62-.59,.88-.89l.42-.45,.35-.43,.17-.21,.08-.1,.02-.05s.03-.06,.05-.08l.06-.15c.05-.09,.09-.22,.13-.36,.05-.12,.09-.29,.12-.45,.32-1.32,.4-3.06,.38-4.76-.03-1.72-.14-3.48-.32-5.25-.36-3.53-.92-7.16-1.61-10.6v-.05c-.4-1.95,.86-3.84,2.81-4.23,1.95-.39,3.84,.88,4.23,2.82,.02,.08,.03,.16,.04,.24Z"/>
            <g>
              <path class="cls-20" d="M207.81,324.12s-2-.59-4.59,3.45c-2.6,4.04-1.95,5.59,0,5.24,1.95-.35,6.89-5.09,7.19-6.19,.3-1.1-2.6-2.5-2.6-2.5Z"/>
              <path class="cls-20" d="M205.97,325.62l.42-1.24s-.67-.1-1.97,.62-3,2.37-1.55,2.22,2.9-1.42,2.9-1.42l.2-.18Z"/>
            </g>
            <path class="cls-51" d="M221.59,286.58s-5.16,.18-4.83,5.68c.33,5.49,2.92,17.98,1.03,20.48-1.41,1.85-9.94,9.84-9.94,9.84,0,0,4.32,3.95,7.29,2.04,4.2-2.7,9.52-6.75,10.71-10.53,2.03-6.45,0-22.33,0-22.33,0,0-.85-5.16-4.25-5.18Z"/>
            <path class="cls-51" d="M227.16,321.82l-.77-9.4-4.86,4.46-7.71,6.67s-.01,.58-.02,1.22c1.13,.24,2.32,.4,3.57,.44,0,0,1.39,.21,3.39-.18,2.41-.47,6.4-.76,6.4-3.22Z"/>
            <path class="cls-11" d="M222.27,286.58s-5.16,.18-4.83,5.68c.33,5.49,2.92,17.98,1.03,20.48-1.9,2.5-11.59,11.35-11.59,11.35,0,0,2.67,.47,3.55,3.68,0,0,14.06-7.24,16.09-13.68s0-22.33,0-22.33c0,0-.85-5.16-4.25-5.18Z"/>
          </g>
          <ellipse class="cls-50" cx="189.8" cy="379.21" rx="20.78" ry="11.2"/>
        </g>
        <g>
          <ellipse class="cls-50" cx="245.43" cy="248.37" rx="28.17" ry="15.18"/>
          <g>
            <path class="cls-20" d="M236.52,139.5c1.24,4.24,5.99,7.71,10.23,6.46s4.66-6.79,3.42-11.03-3.98-6.61-8.22-5.37c-4.24,1.24-6.67,5.69-5.43,9.93Z"/>
            <path class="cls-40" d="M254.17,256.08s-.19,2.86,2.78,3.23c2.97,.37,4.3-1.94,6.49-2.61,3.34-1.03,4.82-4.49,4.63-6.4-.19-1.92-4.56-.95-6.96,.68-2.41,1.62-7.53,3.07-6.93,5.11Z"/>
            <path class="cls-43" d="M254.17,254.96s-.19,2.86,2.78,3.23c2.97,.37,4.3-1.94,6.49-2.61,3.34-1.03,4.82-4.49,4.63-6.4-.19-1.92-4.56-.95-6.96,.68-2.41,1.62-7.53,3.07-6.93,5.11Z"/>
            <path class="cls-40" d="M223.99,247.33s.33,2.84,3.32,2.67c2.98-.17,3.88-2.68,5.91-3.74,3.09-1.62,3.93-5.28,3.4-7.14-.53-1.85-4.65-.11-6.73,1.93-2.08,2.03-6.85,4.38-5.89,6.28Z"/>
            <path class="cls-43" d="M223.79,246.24s.33,2.84,3.32,2.67c2.98-.17,3.88-2.68,5.91-3.74,3.09-1.62,3.93-5.28,3.4-7.14-.53-1.85-4.65-.11-6.73,1.93-2.08,2.03-6.85,4.38-5.89,6.28Z"/>
            <path class="cls-20" d="M236.93,146.95c.06,1.43,.24,3.09,.48,4.61,.24,1.55,.56,3.08,.98,4.55,.82,2.91,2.12,5.74,3.93,7.21,.9,.71,1.84,1.08,3,1.08,.57,0,1.19-.09,1.83-.26,.79-.2,1.71-.44,2.58-.61,1.76-.36,3.55-.59,5.37-.66,.91-.02,1.82-.02,2.75,.05,.46,.04,.92,.09,1.39,.16,.49,.08,.89,.14,1.51,.3,1.04,.27,1.66,1.33,1.39,2.36-.24,.94-1.14,1.54-2.08,1.44l-.26-.03c-.2-.02-.63-.07-.97-.08-.37-.02-.74-.02-1.12-.01-.76,.02-1.52,.08-2.28,.16-1.53,.19-3.05,.52-4.55,.96-.77,.22-1.45,.47-2.27,.74-.97,.32-2.01,.54-3.11,.6-2.21,.17-4.63-.57-6.41-1.89-1.8-1.31-3.06-2.96-4.05-4.63-.98-1.67-1.71-3.39-2.3-5.12-.59-1.73-1.05-3.47-1.42-5.21-.37-1.77-.65-3.45-.84-5.36-.17-1.78,1.13-3.36,2.91-3.54s3.36,1.13,3.54,2.91c0,.06,0,.11,.01,.16v.07Z"/>
            <path class="cls-4" d="M246.32,187.32c-.13-.17-.15-.17-.17-.2-.04-.03-.06-.05-.07-.06-.03-.02-.07-.04-.08-.05-.04-.02-.07-.02-.1-.02-.05,0-.09,.02-.13,.04-.08,.03-.17,.08-.24,.12-.07,.04-.14,.14-.1,.19,.02,.08,.14,.11,.31,.15h2.25c2.36,0,4.34,1.64,4.86,3.84,1.15,4.85,2.27,9.67,3.34,14.54,.54,2.43,1.06,4.87,1.56,7.35,.25,1.24,.49,2.49,.71,3.8,.23,1.36,.4,2.8,.49,4.03,.44,5.04,.74,9.95,1.07,14.91l.89,14.83c.13,2.15-1.51,3.99-3.65,4.12-2.07,.12-3.86-1.39-4.1-3.42,0-.04-1.73-14.74-1.73-14.74-.59-4.88-1.19-9.81-1.88-14.59-.17-1.23-.35-2.24-.59-3.3-.25-1.11-.54-2.28-.85-3.44-.6-2.34-1.25-4.7-1.91-7.06-1.32-4.72-2.7-9.46-4.09-14.15l7.11,3.84c-.93,.36-1.93,.67-3.06,.8-1.11,.16-2.33,.11-3.52-.1-1.2-.22-2.35-.65-3.41-1.22-.53-.29-1.03-.61-1.52-.98-.24-.19-.48-.38-.73-.6-.12-.1-.25-.23-.38-.36l-.21-.22c-.07-.08-.13-.14-.31-.37-2.12-2.82-1.55-6.83,1.27-8.95,2.82-2.12,6.83-1.55,8.95,1.27Z"/>
            <path class="cls-4" d="M244.08,177.62c-.27,.45-.62,1.14-.91,1.75-.3,.63-.59,1.27-.87,1.91-.54,1.29-1.03,2.6-1.47,3.91-.43,1.3-.76,2.61-1.04,3.89-.24,1.27-.39,2.5-.44,3.64l-.02,.57c0,.07,0,.13-.02,.2l-4.01,25.6-2.06,12.86-1.99,12.87c-.33,2.12-2.32,3.58-4.44,3.25-2.04-.32-3.47-2.17-3.28-4.2,0-.04,1.22-12.94,1.22-12.94l1.15-12.91,2.38-25.94-.04,.77c-.09-3.91,.52-7.39,1.27-10.75,.39-1.67,.83-3.31,1.33-4.93,.24-.81,.49-1.62,.76-2.43,.28-.83,.53-1.56,.9-2.52l.09-.22c1.27-3.31,4.99-4.97,8.3-3.7,3.31,1.27,4.97,4.99,3.7,8.3-.13,.34-.31,.7-.49,1Z"/>
            <path class="cls-13" d="M238.42,188.38c1.52,.84,4.29,2.11,6.77,3.21,1.97,.73,2.74,.64,4.83-.19,1.54-.62,2.46-2.08,2.46-2.93v-30.24c0-2.6-1.58-5.61-3.52-6.73l-8.4-5.41-4.72-1.33c-1.16-.33-2.41-.22-3.46,.38-.81,.46-1.67,1.24-2.36,2.56-.56,1.07-.81,2.28-.81,3.48v28.14c0,2.99,0,3.03,2.25,4.65,1.69,1.22,4.8,3.18,6.67,4.25,.09,.05,.18,.1,.28,.16h.01Z"/>
            <path class="cls-19" d="M248.95,151.49l-1.91-1.23c1.27,1.44,2.17,3.64,2.17,5.59v30.24c0,.85-.92,2.31-2.46,2.93-2.08,.83-2.94,.67-4.82,.45-.73-.08-1.55-.23-2.7-.66,1.58,.81,3.86,1.85,5.95,2.78,1.97,.73,2.74,.64,4.83-.19,1.54-.62,2.46-2.08,2.46-2.93v-30.24c0-2.6-1.58-5.61-3.52-6.73Z"/>
            <path class="cls-20" d="M239.29,142.8l-.59,4.71c-.1,.84,.34,1.66,1.11,2,.66,.28,1.58,.46,2.78,.2,.79-.17,1.38-.83,1.48-1.64l.57-4.6-5.35-.67Z"/>
            <path class="cls-29" d="M241.23,128.75c-.28,.31-.61,.58-1,.75-1.02,.46-3.08,1.48-4.04,2.71-1.3,1.67-2.15,11.77,5.41,13.21,0,0,3.04,.81,1.89-2.05-1.51-3.76-1.23-6.79,1.15-5.2,1.8,1.2,1.91-1.64,.86-4.66,0,0,4.59-.74,3.47-4.26-1.11-3.52-3.3-1.48-4.34-1.48-.95,0-1.97-.62-3.41,.99Z"/>
            <g>
              <polygon class="cls-38" points="274.41 135.79 285.44 130.64 285.44 142.8 274.41 135.79"/>
              <polygon class="cls-14" points="273.32 136.9 231.64 200.75 243.05 209.33 284.67 145.74 273.32 136.9"/>
              <path class="cls-18" d="M245.16,203.21c-3.33,.36-7.13-2.2-8.48-5.71-1.35-3.51,.26-6.65,3.59-7.01s7.13,2.2,8.48,5.71c1.35,3.51-.26,6.65-3.59,7.01Z"/>
              <path class="cls-30" d="M245.16,203.21c-3.33,.36-7.13-2.2-8.48-5.71-1.35-3.51,.26-6.65,3.59-7.01s7.13,2.2,8.48,5.71c1.35,3.51-.26,6.65-3.59,7.01Z"/>
              <polygon class="cls-18" points="238.29 194.18 237.01 192.33 231.05 201.65 242.21 210.58 248.67 200.97 243.45 195.96 238.29 194.18"/>
              <path class="cls-30" d="M243.78,195.02l-6.78-2.69-3.01,4.7c.71-1.02,1.72-1.82,3.16-1.97,3.33-.36,7.13,2.2,8.48,5.71,.67,1.74,.67,3.39,.04,4.65,0,0,2.99-4.44,2.99-4.44l-4.89-5.96Z"/>
              <path class="cls-21" d="M239.42,211.87c-3.3,.35-7.05-2.17-8.39-5.65-1.34-3.47,.25-6.58,3.55-6.93s7.05,2.17,8.39,5.65-.25,6.58-3.55,6.93Z"/>
              <path class="cls-14" d="M281.42,147.6c-3.3,.35-7.05-2.17-8.39-5.65-1.34-3.47,.25-6.58,3.55-6.93,3.3-.35,7.05,2.17,8.39,5.65,1.34,3.47-.25,6.58-3.55,6.93Z"/>
              <path class="cls-44" d="M282.1,132.2s2.56-.6,3.34,2.21v-3.77l-3.34,1.56Z"/>
            </g>
            <path class="cls-13" d="M232.4,144.08s3.82-1.31,5.21,2.4,1.89,10.25,2.87,12.54c0,0-3.61,3.21-8.71,2.66,0,0-2.87-11.18-1.9-14.08,0,0,.37-2.39,2.53-3.51Z"/>
            <path class="cls-20" d="M254.01,155.4c.1,1.62,.33,3.45,.62,5.15,.3,1.72,.68,3.43,1.17,5.05,.49,1.62,1.11,3.18,1.88,4.5,.77,1.32,1.72,2.35,2.67,2.8,.93,.45,2.06,.46,3.43-.05,1.38-.51,2.74-1.36,3.96-2.43,1.23-1.07,2.34-2.36,3.32-3.76,.97-1.39,1.89-2.97,2.54-4.43l.04-.1c.44-.98,1.58-1.42,2.57-.99,.94,.42,1.38,1.48,1.04,2.43-.71,1.99-1.54,3.7-2.59,5.43-1.04,1.71-2.26,3.34-3.73,4.82-1.48,1.47-3.21,2.78-5.27,3.69-1.04,.46-2.22,.8-3.51,.89-1.28,.1-2.66-.1-3.89-.61-2.5-1.02-4.14-2.91-5.33-4.7-1.2-1.83-2.04-3.72-2.73-5.61-.69-1.89-1.21-3.8-1.65-5.71-.43-1.94-.77-3.78-1.01-5.86-.21-1.78,1.07-3.38,2.84-3.59,1.78-.21,3.38,1.07,3.59,2.84,0,.05,.01,.11,.01,.16v.07Z"/>
            <path class="cls-13" d="M248.95,151.49s3.82-.75,5.21,2.96c1.39,3.71,1.89,10.25,2.87,12.54,0,0-3.61,3.21-8.71,2.66,0,0-2.32-12.29-1.34-15.2,0,0-.19-1.84,1.97-2.96Z"/>
            <path class="cls-20" d="M275.11,164.26s1.48,.31,2.23-1.1c.75-1.41,1.38-5.79,.24-6.55l-3.19,4.9,.72,2.74Z"/>
            <path class="cls-20" d="M275.22,161s-.51-.24-.17-1.75-1.69-.11-1.13,2.69c.49,2.47,1.3-.94,1.3-.94Z"/>
          </g>
        </g>
        <g>
          <ellipse class="cls-50" cx="27.23" cy="244.71" rx="23.7" ry="12.53"/>
          <g>
            <path class="cls-20" d="M24.01,132.21c-.4,4.4,2.74,9.37,7.14,9.77s6.83-4.6,7.23-9-1.28-7.61-5.68-8.01-8.29,2.84-8.7,7.24Z"/>
            <path class="cls-40" d="M31.97,250.67s-.19,2.86,2.78,3.23,4.3-1.94,6.49-2.61c3.34-1.03,4.82-4.49,4.63-6.4-.19-1.92-4.56-.95-6.96,.68-2.41,1.62-7.53,3.07-6.93,5.11Z"/>
            <path class="cls-45" d="M31.97,249.56s-.19,2.86,2.78,3.23c2.97,.37,4.3-1.94,6.49-2.61,3.34-1.03,4.82-4.49,4.63-6.4-.19-1.92-4.56-.95-6.96,.68-2.41,1.62-7.53,3.07-6.93,5.11Z"/>
            <path class="cls-40" d="M9.47,241.93s.33,2.84,3.32,2.67c2.98-.17,3.88-2.68,5.91-3.74,3.09-1.62,3.93-5.28,3.4-7.14-.53-1.85-4.65-.11-6.73,1.93s-6.85,4.38-5.89,6.28Z"/>
            <path class="cls-45" d="M9.27,240.84s.33,2.84,3.32,2.67c2.98-.17,3.88-2.68,5.91-3.74,3.09-1.62,3.93-5.28,3.4-7.14s-4.65-.11-6.73,1.93c-2.08,2.03-6.85,4.38-5.89,6.28Z"/>
            <path class="cls-20" d="M22.41,141.55c.06,1.43,.24,3.09,.48,4.61,.24,1.55,.56,3.08,.98,4.55,.82,2.91,2.12,5.74,3.93,7.21,.9,.71,1.84,1.08,3,1.08,.57,0,1.19-.09,1.83-.26,.79-.2,1.71-.44,2.58-.61,1.76-.36,3.55-.59,5.37-.66,.91-.02,1.82-.02,2.75,.05,.46,.04,.92,.09,1.39,.16,.49,.08,.89,.14,1.51,.3,1.04,.27,1.66,1.33,1.39,2.36-.24,.94-1.14,1.54-2.08,1.44l-.26-.03c-.2-.02-.63-.07-.97-.08-.37-.02-.74-.02-1.12-.01-.76,.02-1.52,.08-2.28,.16-1.53,.19-3.05,.52-4.55,.96-.77,.22-1.45,.47-2.27,.74-.97,.32-2.01,.54-3.11,.6-2.21,.17-4.63-.57-6.41-1.89-1.8-1.31-3.06-2.96-4.05-4.63-.98-1.67-1.71-3.39-2.3-5.12-.59-1.73-1.05-3.47-1.42-5.21-.37-1.77-.65-3.45-.84-5.36-.17-1.78,1.13-3.36,2.91-3.54s3.36,1.13,3.54,2.91c0,.06,0,.11,.01,.16v.07Z"/>
            <path class="cls-32" d="M31.8,181.92c-.13-.17-.15-.17-.17-.2-.04-.03-.06-.05-.07-.06-.03-.02-.07-.04-.08-.05-.04-.02-.07-.02-.1-.02-.05,0-.09,.02-.13,.03-.08,.03-.17,.08-.24,.12-.07,.04-.14,.14-.1,.19,.02,.08,.14,.11,.31,.15h2.25c2.36,0,4.34,1.64,4.86,3.84,1.17,4.95,2.31,9.87,3.4,14.83,.55,2.49,1.08,4.97,1.58,7.51,.25,1.28,.49,2.54,.71,3.92l.16,1.08c.05,.45,.11,1.03,.11,1.4,.03,.85,0,1.55-.03,2.26-.15,2.78-.47,5.32-.8,7.89-.34,2.55-.71,5.08-1.11,7.59-.8,5.03-1.66,10.01-2.59,15.02-.39,2.11-2.42,3.51-4.54,3.12-2.04-.38-3.41-2.28-3.15-4.32,.64-4.98,1.23-9.98,1.74-14.93,.25-2.48,.48-4.96,.67-7.42,.18-2.45,.34-4.93,.34-7.18,0-.54-.02-1.11-.06-1.51-.02-.26-.04-.3-.07-.48l-.16-.79c-.24-1.1-.54-2.29-.84-3.48-.61-2.38-1.27-4.79-1.94-7.19-1.34-4.81-2.75-9.65-4.17-14.44l7.11,3.84c-.93,.36-1.93,.67-3.06,.8-1.11,.16-2.33,.11-3.52-.1-1.2-.22-2.35-.65-3.41-1.22-.53-.29-1.03-.61-1.52-.98-.24-.19-.48-.38-.73-.6-.12-.1-.25-.23-.38-.36l-.21-.22c-.07-.08-.13-.14-.31-.37-2.12-2.82-1.55-6.83,1.27-8.95,2.82-2.12,6.83-1.55,8.95,1.27Z"/>
            <path class="cls-32" d="M29.57,172.22c-.25,.42-.59,1.09-.87,1.66-.29,.6-.57,1.21-.84,1.82-.52,1.23-1.01,2.48-1.42,3.72-.42,1.24-.79,2.49-1.05,3.71-.16,.62-.23,1.21-.35,1.81-.06,.59-.17,1.15-.18,1.76-.33,5.81-.72,11.78-1.15,17.67-.22,2.97-.45,5.91-.77,8.98-.14,1.52-.43,3.33-.76,4.81-.33,1.51-.67,2.98-1.03,4.44-1.45,5.82-2.94,11.52-4.51,17.25-.57,2.07-2.71,3.3-4.78,2.73-2-.55-3.2-2.55-2.78-4.55,1.22-5.75,2.43-11.52,3.39-17.23,.25-1.43,.47-2.84,.67-4.23,.2-1.42,.29-2.53,.36-3.94,.11-2.81,.15-5.75,.18-8.67,.05-5.87,.05-11.68,.02-17.64,.02-3.58,.66-6.91,1.38-10.08,.37-1.6,.82-3.14,1.28-4.69,.23-.77,.47-1.54,.73-2.31,.27-.79,.5-1.49,.86-2.41l.1-.25c1.28-3.31,5-4.96,8.31-3.68,3.31,1.28,4.96,5,3.68,8.31-.13,.34-.31,.7-.49,1Z"/>
            <path class="cls-47" d="M23.91,182.98c1.52,.84,4.29,2.11,6.77,3.21,1.97,.73,2.74,.64,4.83-.19,1.54-.62,2.46-2.08,2.46-2.93v-30.24c0-2.59-1.58-5.61-3.52-6.73l-8.4-5.41-4.72-1.33c-1.16-.33-2.41-.22-3.46,.38-.81,.46-1.67,1.24-2.36,2.56-.56,1.07-.81,2.28-.81,3.48v28.14c0,2.99,0,3.03,2.25,4.65,1.69,1.22,4.8,3.18,6.67,4.25,.09,.05,.18,.1,.28,.16h.01Z"/>
            <path class="cls-48" d="M34.44,146.09l-1.91-1.23c1.27,1.44,2.17,3.64,2.17,5.59v30.24c0,.85-.92,2.31-2.46,2.93-2.08,.83-2.94,.67-4.82,.45-.73-.08-1.55-.23-2.7-.66,1.58,.81,3.86,1.85,5.95,2.78,1.97,.73,2.74,.64,4.83-.19,1.54-.62,2.46-2.08,2.46-2.93v-30.24c0-2.59-1.58-5.61-3.52-6.73Z"/>
            <path class="cls-20" d="M24.77,137.4l-.59,4.71c-.1,.84,.34,1.66,1.11,2,.66,.28,1.58,.46,2.78,.2,.79-.17,1.38-.83,1.48-1.64l.57-4.6-5.35-.67Z"/>
            <path class="cls-47" d="M17.88,138.67s3.82-1.3,5.21,2.4c1.39,3.71,1.89,10.25,2.87,12.54,0,0-3.61,3.21-8.71,2.66,0,0-2.87-11.18-1.9-14.08,0,0,.37-2.39,2.53-3.51Z"/>
            <polygon class="cls-23" points="40.53 162.47 45.76 161.92 43.12 157.26 39.39 157.26 40.53 162.47"/>
            <g>
              <polygon class="cls-3" points="97.3 204.76 101.21 221.41 88.1 217.44 97.3 204.76"/>
              <path class="cls-39" d="M97.44,206.19c0,3.83-2.71,8.5-6.04,10.43-3.34,1.93-6.04,.38-6.04-3.45s2.71-8.5,6.04-10.43,6.04-.38,6.04,3.45Z"/>
              <polygon class="cls-39" points="40.53 156.15 86.19 216.21 96.28 202.78 50.72 142.81 40.53 156.15"/>
              <path class="cls-30" d="M57.14,153.08c0,3.83-2.71,8.51-6.05,10.44-3.34,1.93-6.05,.38-6.05-3.45s2.71-8.51,6.05-10.44c3.34-1.93,6.05-.38,6.05,3.45Z"/>
              <polygon class="cls-30" points="49.36 162.71 46.03 163.31 43.47 159.98 45.83 159.66 49.36 162.71"/>
              <path class="cls-30" d="M55.16,151.73c.07-.11,1.02-1.83,1.02-1.83l-2.4-3.13,.12,2.74,1.26,2.22Z"/>
              <path class="cls-18" d="M53.19,148.8l.72-1.88-3.07-3.97-1.47,2.37s1.61,2.22,1.65,2.23c.04,.01,2.18,1.25,2.18,1.25Z"/>
              <path class="cls-18" d="M54.84,150.09c0,3.83-2.71,8.51-6.05,10.44s-6.05,.38-6.05-3.45,2.71-8.51,6.05-10.44,6.05-.38,6.05,3.45Z"/>
              <polygon class="cls-18" points="40.36 155.92 43.62 160.18 43.86 158.75 42.77 156.56 40.36 155.92"/>
              <path class="cls-21" d="M51.69,146.02c0,3.83-2.71,8.5-6.04,10.43-3.34,1.93-6.04,.38-6.04-3.45s2.71-8.5,6.04-10.43c3.34-1.93,6.04-.38,6.04,3.45Z"/>
              <path class="cls-39" d="M97.92,220.41s2.53-.14,2.36-2.97l.93,3.97-3.29-1Z"/>
            </g>
            <path class="cls-20" d="M39.5,150c.1,1.62,.33,3.45,.62,5.15,.3,1.72,.68,3.43,1.17,5.05,.49,1.62,1.11,3.18,1.88,4.5,.77,1.32,1.72,2.35,2.67,2.79,.93,.45,2.06,.46,3.43-.05,1.38-.51,2.74-1.36,3.96-2.43,1.23-1.07,2.34-2.36,3.32-3.76,.97-1.39,1.89-2.97,2.54-4.43l.04-.1c.44-.98,1.58-1.42,2.57-.99,.94,.42,1.38,1.48,1.04,2.43-.71,1.99-1.54,3.7-2.59,5.43-1.04,1.71-2.26,3.34-3.73,4.82-1.48,1.47-3.21,2.78-5.27,3.69-1.04,.46-2.22,.8-3.51,.9-1.28,.1-2.66-.1-3.89-.61-2.5-1.02-4.14-2.91-5.33-4.7-1.21-1.83-2.04-3.72-2.73-5.61-.69-1.89-1.21-3.8-1.65-5.71-.43-1.94-.77-3.78-1.01-5.86-.21-1.78,1.07-3.38,2.84-3.59s3.38,1.07,3.59,2.84c0,.05,.01,.11,.01,.16v.07Z"/>
            <path class="cls-20" d="M60.56,157.28s-1.33-.03-1.33-1.64,.66-.73,.66-.73l-.66-.87s.96-.91,2.52,.65,1.83,3.06,.87,3.84c-.96,.78-2.06-1.24-2.06-1.24Z"/>
            <path class="cls-35" d="M24.39,140.52s-.16,1.37,2.24,1.92c2.4,.55,3.02-.43,3.02-.43l1.57,2.01s-2.96,2.35-6.49,.43c0,0-2.22-1.74-.75-4.34l.45,.04-.05,.39Z"/>
            <path class="cls-47" d="M34.61,146.77s-3.01,1.23-2.14,6.17,3.93,20.17,13.18,21.13c9.24,.97,16.79-13.73,16.79-13.73,0,0-.82-2.56-3.98-3.06,0,0-4.68,8.49-9.1,9.11-.54,.08-5.83,.3-7.85-6.05-.43-1.36-1.16-3.03-1.16-5.07,0-10.83-5.75-8.5-5.75-8.5Z"/>
            <path class="cls-35" d="M58.46,157.28l-1.33,2.15s2.71,.32,4.07,3.04l1.23-2.13s-.87-2.93-3.98-3.06Z"/>
            <path class="cls-4" d="M37.9,137.98s-.04,0-.05,0l-1.09-.44c-.07-.03-.1-.1-.08-.17l1.09-3.49s.04-.07,.08-.08c.04-.02,.08-.02,.11,0l.97,.47c.06,.03,.09,.1,.07,.16l-.97,3.47s-.04,.07-.07,.09c-.02,0-.04,.01-.06,.01Zm-.93-.66l.83,.34,.9-3.21-.72-.35-1.01,3.22Z"/>
            <path class="cls-4" d="M37.37,135.72s-5.11-1.88-5.11-1.88c-.07-.03-.11-.11-.08-.18,.03-.07,.1-.11,.18-.08l5.06,1.87c.07,.03,.11,.11,.08,.18-.02,.06-.07,.09-.13,.09Z"/>
            <path class="cls-4" d="M34.27,132.27c.08-.64,.03-2.14,1.32-2.22,1.29-.08,3.04-.18,3.23-1.18,.19-1-.44-2.32-2.02-3.15s-3.59-.69-6.2-1.42c-2.61-.73-6.3,1.83-7.13,5.77-.83,3.93-.3,6.46,1.25,7.89,1.56,1.43,4.21,3.3,4.32,.96,.12-2.35-.07-7.67,2.62-5.44,0,0,.8,.9,1.54,.94,.41,.02,.78,.24,1.06-2.14Z"/>
          </g>
        </g>
        <g>
          <ellipse class="cls-50" cx="73.25" cy="342.05" rx="18.15" ry="9.2"/>
          <g>
            <path class="cls-20" d="M85.17,235.77l-2.99,24.27-3.22-2.97,13.95-1.43c.91-.09,1.72,.57,1.81,1.47,.08,.82-.45,1.56-1.22,1.77l-13.56,3.59c-1.38,.37-2.8-.46-3.17-1.84-.08-.29-.1-.57-.08-.85l.02-.28,1.9-24.38c.14-1.81,1.73-3.17,3.54-3.03,1.81,.14,3.17,1.73,3.03,3.54,0,.05,0,.1-.01,.15Z"/>
            <path class="cls-16" d="M80.46,232.01s2.51-.79,4.23,1.05c1.73,1.83-.62,10.82-.62,10.82l-3.62-11.87Z"/>
            <path class="cls-17" d="M80.46,232.01s2.51-.79,4.23,1.05c1.73,1.83-.62,10.82-.62,10.82l-3.62-11.87Z"/>
            <path class="cls-39" d="M77.05,335.83s-2.03,2.62,1.63,5.16c3.66,2.53,6.39,3.88,8.9,3.23,2.5-.65-5.17-9.38-8.18-9.38-1.52,0-2.34,1-2.34,1Z"/>
            <path class="cls-39" d="M60.65,337.7s-2.29,2.4,1.09,5.3c3.38,2.89,5.96,4.52,8.52,4.12,2.56-.39-4.18-9.87-7.18-10.18-.98-.1-2.43,.76-2.43,.76Z"/>
            <path class="cls-20" d="M72.95,287.21l-1.1,24.88v.28c-.02,.14-.04,.28-.07,.41l-6.73,25.93c-.3,1.17-1.5,1.88-2.68,1.58-1.11-.29-1.8-1.39-1.61-2.5l4.58-26.4-.07,.7-1.1-24.88c-.11-2.43,1.77-4.48,4.2-4.59,2.43-.11,4.48,1.77,4.59,4.2,0,.13,0,.26,0,.39Z"/>
            <path class="cls-20" d="M83.14,282.24l.28,27.02,.03,3.37-.2,3.38-.4,6.76-.79,13.5c-.07,1.21-1.11,2.14-2.32,2.07-1.14-.07-2.03-1-2.07-2.12l-.46-13.42-.23-6.7-.11-3.35-.28-3.35-2.22-26.75c-.2-2.42,1.6-4.54,4.02-4.74,2.42-.2,4.54,1.6,4.74,4.02,0,.1,.01,.22,.01,.32Z"/>
            <path class="cls-16" d="M83.37,261.9l1.34-17.85,.04-.5c.1-1.8,.14-8.22-4.29-11.55-.71-.53-1.16-.97-1.4-1.33-.61,0-1.29,.16-2.03,.59l-12.18,7.03-.53,.31c-1.34,.88-4.64,3.85-3.21,11.05,1.78,8.92,4.32,14.13,3.74,16.88-.53,2.52-3.27,4.89-4.28,16.44l-.92,13.31c-.13,1.89,1.11,3.64,2.97,4.04,1.03,.22,2.37,.31,4.07,.1,2.53-.31,5.83-.84,10.35-2.6,2.6-1.01,8.62-3.36,8.26-8.15l-2.04-27.04c.04-.24,.09-.49,.11-.73Z"/>
            <path class="cls-45" d="M80.96,227.86s-1.69,4.35,0,5.66,.61,2.37-1.29,2.61c-1.9,.24-4.27-.68-3.69-2.26,.58-1.58-.83-6.02-.83-6.02h5.81Z"/>
            <path class="cls-20" d="M68.67,236.09s2.34,4.64,7,3.4,1.06-5.51,1.06-5.51l-8.06,2.11Z"/>
            <rect class="cls-20" x="70.44" y="229.2" width="6.12" height="6.63" transform="translate(-23.78 8.9) rotate(-5.97)"/>
            <path class="cls-12" d="M70.21,230.51l-.1-.98,6.09-.64,.36,3.4c-2.21,.3-4.46-.43-6.34-1.78Z"/>
            <path class="cls-20" d="M65.69,223.67c1.39,4.82,6.76,8.78,11.58,7.39,4.82-1.39,5.33-7.68,3.94-12.5s-4.49-7.52-9.31-6.14-7.6,6.42-6.22,11.24Z"/>
            <path class="cls-28" d="M73.61,217.21s-.21,5.6-3.5,6.43c0,0-1.92-1-2.23,1.31,0,0-.12,.6,1.31,1.43,1.43,.83,.92,3.16,.92,3.16,0,0-3.15-.78-4.77-4.94-1.62-4.17,.17-8.09,2.19-10.48s9.05-4.29,12.14,0c3.1,4.29,1.9,5.95,1.9,5.95,0,0-2.98,.48-7.96-2.86Z"/>
            <path class="cls-28" d="M67.53,214.12s-3.69,2.38-4.17,9.88c-.48,7.5,1.69,8.74,0,10.95-1.9,2.5,1.29,3.74,5.12,2.98,4.77-.95,1.63-10.19,1.63-10.19l-3.77-3.26,1.9-7.5-.71-2.86Z"/>
            <path class="cls-20" d="M66.16,242.8l-3.8,24.91-3.65-2.94,20.89-6.38c.87-.27,1.79,.22,2.06,1.1,.25,.82-.17,1.68-.94,2l-20.15,8.44c-1.36,.57-2.92-.07-3.48-1.43-.18-.43-.24-.87-.19-1.3l.02-.21,2.72-25.05c.2-1.81,1.82-3.12,3.63-2.92,1.81,.2,3.12,1.82,2.92,3.63,0,.04-.01,.1-.02,.14Z"/>
            <g>
              <polygon class="cls-41" points="91.8 265.02 79.05 272.38 80.95 249.49 93.7 242.13 91.8 265.02"/>
              <polygon class="cls-41" points="94.11 242.54 93.7 242.13 83.18 256.97 79.05 272.38 79.46 272.79 88.8 263.14 94.11 242.54"/>
              <polygon class="cls-39" points="92.21 265.43 79.46 272.79 81.36 249.9 94.11 242.54 92.21 265.43"/>
              <polygon class="cls-22" points="90.38 246.69 84.69 249.98 84.9 247.86 90.59 244.58 90.38 246.69"/>
              <polygon class="cls-22" points="90.99 244.98 90.59 244.58 90.19 245.25 84.69 249.98 85.09 250.38 90.69 246.02 90.99 244.98"/>
              <polygon class="cls-30" points="90.78 247.09 85.09 250.38 85.3 248.26 90.99 244.98 90.78 247.09"/>
              <polygon class="cls-15" points="87.47 252.67 88.29 255.15 91.06 254.03 88.65 257.72 88.64 260.98 86.33 260.78 83.55 263.92 84.53 260.1 82.83 258.78 85.75 256.62 87.47 252.67"/>
              <polygon class="cls-15" points="87.47 252.67 87.99 253.18 88.34 255.96 91.06 254.03 91.58 254.54 87.84 258.89 84.8 262.94 84.06 264.43 83.55 263.92 84.84 259.55 83.35 259.3 82.83 258.78 86.26 257.14 87.47 252.67"/>
              <polygon class="cls-11" points="87.99 253.18 88.81 255.67 91.58 254.54 89.17 258.24 89.15 261.5 86.84 261.29 84.06 264.43 85.05 260.61 83.35 259.3 86.26 257.14 87.99 253.18"/>
            </g>
            <path class="cls-20" d="M94.11,257.25s.95-.04,0-1.64-1.56-1.33-1.56-.32-.52,3.22,.65,3.26c1.18,.04,.91-1.3,.91-1.3Z"/>
            <path class="cls-20" d="M78.88,259.76c-.37,.1,.91-1.47,.91-1.47,0,0,1.37-1.81,2.52-2.45s1.33,3.8,.82,4.85c-.5,1.05-3.68,1.14-3.68,1.14l-.57-2.07Z"/>
            <polygon class="cls-20" points="79.78 258.29 80.46 255.4 80.22 258.29 79.78 258.29"/>
            <g class="cls-52">
              <path class="cls-16" d="M63.9,260.53l1.82-13.04s2.19-5.55-1.02-7.04c0,0-.87-.39-1.96-.41-1.33,1.63-2.64,4.59-1.64,9.61,.91,4.53,2,8.1,2.79,10.88Z"/>
              <path class="cls-16" d="M76.89,260.01l-12.25,3.39c.27,1.28,.38,2.31,.21,3.13-.24,1.13-.92,2.24-1.7,4.16,6.15-1.73,14.62-5.56,14.62-5.56,0,0,.7-3.33-.89-5.11Z"/>
            </g>
            <path class="cls-16" d="M64.71,239.24s-4.43-2.01-5.74,2.88c-1.3,4.89-4.53,26.11-1.65,27.92,2.88,1.81,20.46-6.13,20.46-6.13,0,0,.7-3.33-.89-5.11l-13.43,3.71,2.27-16.24s2.19-5.55-1.02-7.04Z"/>
          </g>
        </g>
        <g>
          <polygon class="cls-46" points="144.02 96.32 140.18 97.39 142.61 100.65 145.2 97.98 144.02 96.32"/>
          <polygon class="cls-46" points="165.69 139.03 161.65 140.16 161.65 138.36 164.25 137.84 165.69 139.03"/>
          <path class="cls-46" d="M162.54,138.43l-19.09-11.02c-2.65-1.53-4.49-5.05-4.12-7.87l2.68-20.36c.37-2.82,2.82-3.87,5.46-2.34l19.09,11.02c2.65,1.53,4.49,5.05,4.12,7.87l-2.68,20.36c-.37,2.82-2.82,3.87-5.46,2.34Z"/>
          <path class="cls-47" d="M158.61,139.53l-19.09-11.02c-2.65-1.53-4.49-5.05-4.12-7.87l2.68-20.36c.37-2.82,2.82-3.87,5.46-2.34l19.09,11.02c2.65,1.53,4.49,5.05,4.12,7.87l-2.68,20.36c-.37,2.82-2.82,3.87-5.46,2.34Z"/>
          <path class="cls-10" d="M156.25,115.95c.35-2.63-1.37-5.92-3.84-7.35-2.47-1.42-4.75-.45-5.1,2.19s1.37,5.92,3.84,7.35c2.47,1.43,4.75,.45,5.1-2.19Z"/>
          <path class="cls-10" d="M150.98,119.49c-4.2-2.42-8.15-.2-8.83,4.97l15.19,8.77c.68-5.17-2.17-11.32-6.36-13.74Z"/>
        </g>
      </g>
    </g>
    <g id="Text"/>
  </g>
</svg>